
  <svg width="835.5" height="48" viewBox="0 0 4456 256" fill="none" xmlns="http://www.w3.org/2000/svg" xmlns:xlink="http://www.w3.org/1999/xlink" version="1.1">
    
        <g transform="translate(0, 0)">
          <svg xmlns="http://www.w3.org/2000/svg" width="256" height="256" fill="none" viewBox="0 0 256 256"><rect width="256" height="256" fill="#2396ED" rx="60"/><path fill="#fff" d="M141.187 122.123H161.904V103.379H141.187V122.123ZM116.525 122.123H137.241V103.379H116.525V122.123ZM92.3554 122.123H113.072V103.379H92.3554V122.123ZM68.1859 122.123H88.4093V103.379H68.1859V122.123ZM43.5233 122.123H64.2399V103.379H43.5233V122.123ZM68.1859 99.4333H88.4093V80.6896H68.1859V99.4333ZM92.3554 99.4333H113.072V80.6896H92.3554V99.4333ZM116.525 99.4333H137.241V80.6896H116.525V99.4333ZM116.525 76.7436H137.241V58H116.525V76.7436ZM228 113.738C228 113.738 219.121 105.352 200.871 108.312C198.898 94.0075 183.607 85.6222 183.607 85.6222C183.607 85.6222 169.303 102.886 179.661 122.123C176.702 123.603 171.769 125.576 164.37 125.576H28.7257C26.2594 134.948 26.2594 197.097 94.3284 197.097C143.16 197.097 179.661 174.408 196.925 132.974C222.574 134.948 228 113.738 228 113.738Z"/></svg>
        </g>
         
        <g transform="translate(300, 0)">
          <svg xmlns="http://www.w3.org/2000/svg" width="256" height="256" fill="none" viewBox="0 0 256 256"><rect width="256" height="256" fill="#F03C2E" rx="60"/><g clip-path="url(#clip0_7_283)"><path fill="#fff" d="M224.225 119.094L136.906 31.775C135.711 30.5787 134.291 29.6298 132.729 28.9824C131.166 28.3349 129.491 28.0017 127.8 28.0017C126.109 28.0017 124.434 28.3349 122.871 28.9824C121.309 29.6298 119.889 30.5787 118.694 31.775L100.569 49.9L123.569 72.9C128.919 71.025 135.044 72.3062 139.306 76.5687C141.335 78.6014 142.752 81.1638 143.394 83.9632C144.036 86.7626 143.878 89.6862 142.937 92.4L165.106 114.569C170.469 112.719 176.656 113.912 180.937 118.206C182.361 119.63 183.49 121.32 184.26 123.18C185.03 125.04 185.426 127.033 185.426 129.046C185.425 131.059 185.029 133.052 184.258 134.912C183.487 136.771 182.358 138.461 180.934 139.884C179.511 141.308 177.821 142.436 175.961 143.206C174.101 143.977 172.108 144.373 170.095 144.372C168.082 144.372 166.088 143.975 164.229 143.205C162.369 142.434 160.679 141.305 159.256 139.881C154.756 135.381 153.644 128.756 155.919 123.212L135.244 102.537V156.944C136.745 157.686 138.116 158.666 139.306 159.844C140.729 161.267 141.858 162.956 142.629 164.816C143.399 166.675 143.795 168.668 143.795 170.681C143.795 172.694 143.399 174.687 142.629 176.546C141.858 178.406 140.729 180.096 139.306 181.519C137.883 182.942 136.193 184.071 134.334 184.841C132.474 185.611 130.481 186.008 128.469 186.008C126.456 186.008 124.463 185.611 122.604 184.841C120.744 184.071 119.054 182.942 117.631 181.519C116.206 180.096 115.076 178.407 114.305 176.548C113.533 174.688 113.136 172.694 113.136 170.681C113.136 168.668 113.533 166.675 114.305 164.815C115.076 162.955 116.206 161.266 117.631 159.844C119.112 158.369 120.756 157.25 122.65 156.5V101.587C120.825 100.837 119.112 99.7312 117.631 98.2437C115.479 96.0943 114.016 93.3526 113.428 90.3684C112.841 87.3841 113.155 84.2924 114.331 81.4875L91.6437 58.8125L31.7687 118.625C30.5716 119.821 29.6219 121.241 28.9739 122.804C28.3259 124.367 27.9924 126.042 27.9924 127.734C27.9924 129.426 28.3259 131.102 28.9739 132.665C29.6219 134.228 30.5716 135.648 31.7687 136.844L119.094 224.156C120.289 225.352 121.709 226.301 123.271 226.949C124.834 227.596 126.509 227.929 128.2 227.929C129.891 227.929 131.566 227.596 133.129 226.949C134.691 226.301 136.111 225.352 137.306 224.156L224.225 137.375C225.422 136.179 226.372 134.759 227.02 133.196C227.668 131.633 228.001 129.958 228.001 128.266C228.001 126.574 227.668 124.898 227.02 123.335C226.372 121.772 225.422 120.352 224.225 119.156"/></g><defs><clipPath id="clip0_7_283"><rect width="200" height="200" fill="#fff" transform="translate(28 28)"/></clipPath></defs></svg>
        </g>
         
        <g transform="translate(600, 0)">
          <svg width="256" height="256" viewBox="0 0 256 256" fill="none" xmlns="http://www.w3.org/2000/svg">
<rect width="256" height="256" rx="60" fill="#F4F4ED"/>
<path fill-rule="evenodd" clip-rule="evenodd" d="M76.0652 43C94.3271 43 109.13 57.8034 109.13 76.0652C109.13 94.3271 94.3271 109.13 76.0652 109.13C57.8034 109.13 43 94.3271 43 76.0652C43 57.8034 57.8034 43 76.0652 43Z" stroke="#2088FF" stroke-width="7.34783" stroke-linecap="round" stroke-linejoin="round"/>
<path fill-rule="evenodd" clip-rule="evenodd" d="M123.826 109.13C136 109.13 145.87 119 145.87 131.174C145.87 143.348 136 153.217 123.826 153.217C111.652 153.217 101.783 143.348 101.783 131.174C101.783 119 111.652 109.13 123.826 109.13Z" stroke="#2088FF" stroke-width="7.34783" stroke-linecap="round" stroke-linejoin="round"/>
<path fill-rule="evenodd" clip-rule="evenodd" d="M123.826 167.913C136 167.913 145.87 177.782 145.87 189.957C145.87 202.131 136 212 123.826 212C111.652 212 101.783 202.131 101.783 189.957C101.783 177.782 111.652 167.913 123.826 167.913Z" stroke="#2088FF" stroke-width="7.34783" stroke-linecap="round" stroke-linejoin="round"/>
<path fill-rule="evenodd" clip-rule="evenodd" d="M189.957 167.913C202.131 167.913 212 177.782 212 189.957C212 202.131 202.131 212 189.957 212C177.782 212 167.913 202.131 167.913 189.957C167.913 177.782 177.782 167.913 189.957 167.913Z" stroke="#79B8FF" stroke-width="7.34783" stroke-linecap="round" stroke-linejoin="round"/>
<path d="M131.308 126.056L120.032 137.317L114.555 131.859" stroke="#2088FF" stroke-width="7.34783" stroke-linecap="round" stroke-linejoin="round"/>
<path fill-rule="evenodd" clip-rule="evenodd" d="M189.957 109.13C202.131 109.13 212 119 212 131.174C212 143.348 202.131 153.217 189.957 153.217C177.782 153.217 167.913 143.348 167.913 131.174C167.913 119 177.782 109.13 189.957 109.13Z" stroke="#2088FF" stroke-width="7.34783" stroke-linecap="round" stroke-linejoin="round"/>
<path d="M197.438 126.056L186.162 137.317L180.686 131.859" stroke="#2088FF" stroke-width="7.34783" stroke-linecap="round" stroke-linejoin="round"/>
<path d="M65.0435 64.3532C65.0435 61.4617 68.2291 59.7035 70.6756 61.2446L89.461 73.0784C91.7583 74.5255 91.7462 77.8786 89.439 79.3093L70.6534 90.9574C68.206 92.4747 65.0435 90.7145 65.0435 87.8349V64.3532Z" stroke="#2088FF" stroke-width="7.34783" stroke-linecap="round" stroke-linejoin="round"/>
<path d="M72.3911 109.13V164.239C72.3911 178.442 84.0639 189.956 98.1085 189.956H101.782" stroke="#2088FF" stroke-width="7.34783" stroke-linecap="round" stroke-linejoin="round"/>
<path d="M101.595 134.847C103.624 134.847 105.269 133.203 105.269 131.173C105.269 129.144 103.624 127.5 101.595 127.5V134.847ZM68.7173 109.259C68.7173 123.391 80.1736 134.847 94.3054 134.847V127.5C84.2315 127.5 76.0651 119.333 76.0651 109.259H68.7173ZM94.3054 134.847H101.595V127.5H94.3054V134.847Z" fill="#2088FF"/>
<path d="M146.071 131.174H167.911" stroke="#2088FF" stroke-width="7.34783" stroke-linecap="round" stroke-linejoin="round"/>
<path fill-rule="evenodd" clip-rule="evenodd" d="M116.478 186.283C118.505 186.283 120.152 187.929 120.152 189.957C120.152 191.987 118.505 193.631 116.478 193.631C114.451 193.631 112.804 191.987 112.804 189.957C112.804 187.929 114.451 186.283 116.478 186.283Z" fill="#79B8FF"/>
<path fill-rule="evenodd" clip-rule="evenodd" d="M131.174 186.283C133.201 186.283 134.848 187.929 134.848 189.957C134.848 191.987 133.201 193.631 131.174 193.631C129.147 193.631 127.5 191.987 127.5 189.957C127.5 187.929 129.147 186.283 131.174 186.283Z" fill="#79B8FF"/>
<path d="M164.257 189.981L160.537 190.103" stroke="#79B8FF" stroke-width="7.34783" stroke-linecap="round"/>
</svg>

        </g>
         
        <g transform="translate(900, 0)">
          <svg xmlns="http://www.w3.org/2000/svg" width="256" height="256" fill="none" viewBox="0 0 256 256"><rect width="256" height="256" fill="#326CE5" rx="60"/><path fill="#fff" stroke="#fff" stroke-width=".11" d="M128.073 30C124.796 30.2304 122.313 33.0377 122.484 36.3143V37.9185C122.637 39.736 122.91 41.5364 123.269 43.3198C123.792 46.7349 123.98 50.1928 123.832 53.6446C123.507 54.7794 122.859 55.8034 121.972 56.5884L121.844 58.9947C118.388 59.2848 114.958 59.8138 111.579 60.5818C97.3628 63.7901 84.4184 71.1625 74.4264 81.7859L72.3785 80.3353C71.2522 80.6767 70.0405 80.5487 69.0081 79.994C66.2384 77.9441 63.675 75.6293 61.3541 73.0824C60.1883 71.6894 58.9432 70.3646 57.6252 69.1146L56.3624 68.1078C55.236 67.2033 53.8537 66.6828 52.4117 66.6145C51.5511 66.5689 50.6919 66.7275 49.9045 67.0775C49.117 67.4275 48.4235 67.9589 47.8807 68.6283C45.9523 71.3332 46.5837 75.0791 49.2801 77.0161L50.4576 77.9547C51.9734 78.9632 53.546 79.8834 55.1678 80.7108C58.1884 82.3918 61.0384 84.3629 63.6836 86.6838C64.3602 87.6487 64.7533 88.7837 64.8184 89.9604L66.6786 91.667C56.6354 106.736 52.514 124.988 55.091 142.915L52.7018 143.598C52.0789 144.588 51.2512 145.433 50.2614 146.055C46.928 146.946 43.5158 147.509 40.0731 147.736C38.2461 147.774 36.4227 147.916 34.6121 148.163L33.1018 148.504H32.9311C31.883 148.65 30.8958 149.083 30.0795 149.757C29.2632 150.43 28.6497 151.316 28.3074 152.318C27.9651 153.319 27.9074 154.396 28.1407 155.428C28.374 156.46 28.8892 157.407 29.6289 158.164C30.3755 158.916 31.3168 159.447 32.3475 159.695C33.3781 159.944 34.4577 159.901 35.4654 159.571H35.5763L37.1122 159.401C38.8444 158.889 40.551 158.257 42.2149 157.541C45.4147 156.261 48.734 155.279 52.1301 154.64C53.3076 154.708 54.4339 155.109 55.3896 155.791L57.9495 155.365C63.4958 172.576 75.1517 187.158 90.7157 196.348L89.6746 198.524C90.1525 199.522 90.3317 200.632 90.1866 201.732C88.7787 204.992 87.0551 208.115 85.0413 211.05C83.9366 212.506 82.9167 214.025 81.9865 215.598L81.2612 217.134C80.735 218.047 80.4713 219.088 80.4992 220.141C80.5271 221.194 80.8456 222.219 81.4194 223.103C81.9932 223.987 82.8001 224.695 83.751 225.149C84.7018 225.603 85.7596 225.785 86.8076 225.676C87.858 225.557 88.8551 225.15 89.6881 224.5C90.5211 223.849 91.1574 222.98 91.5263 221.989L92.2345 220.539C92.883 218.832 93.4291 217.091 93.8728 215.334C95.3831 211.605 96.2023 207.603 98.2672 205.128C98.9421 204.494 99.7926 204.078 100.708 203.934L101.988 201.604C118.859 208.089 137.528 208.135 154.431 201.732L155.565 203.908C156.726 204.079 157.767 204.719 158.467 205.657C160.071 208.712 161.368 211.912 162.358 215.214C162.809 216.982 163.362 218.723 164.013 220.428L164.721 221.878C165.094 222.865 165.732 223.73 166.565 224.376C167.398 225.023 168.394 225.426 169.443 225.542C170.491 225.658 171.551 225.481 172.505 225.032C173.46 224.583 174.271 223.878 174.85 222.996C175.423 222.109 175.739 221.081 175.763 220.025C175.787 218.969 175.518 217.927 174.986 217.015L174.244 215.479C173.314 213.911 172.294 212.398 171.189 210.948C169.227 208.115 167.537 205.094 166.069 201.929C165.932 201.35 165.913 200.749 166.013 200.163C166.113 199.577 166.329 199.016 166.65 198.515C166.286 197.771 165.969 197.005 165.702 196.22C181.232 186.962 192.837 172.328 198.324 155.092L200.747 155.518C201.617 154.725 202.761 154.307 203.93 154.341C207.317 154.989 210.636 156.047 213.845 157.242C215.509 158.01 217.215 158.658 218.947 159.205C219.357 159.316 219.954 159.409 220.415 159.52H220.526C221.533 159.846 222.611 159.885 223.639 159.634C224.667 159.383 225.605 158.851 226.349 158.099C227.093 157.346 227.614 156.401 227.853 155.37C228.091 154.339 228.039 153.262 227.702 152.259C227.357 151.257 226.741 150.37 225.921 149.698C225.101 149.026 224.111 148.595 223.06 148.453L221.405 148.061C219.594 147.814 217.771 147.671 215.944 147.634C212.497 147.412 209.084 146.849 205.756 145.953C204.732 145.381 203.878 144.528 203.298 143.496L200.994 142.813C203.451 124.894 199.242 106.697 189.168 91.6755L191.182 89.8154C191.096 88.6464 191.48 87.4859 192.24 86.5899C194.859 84.3373 197.701 82.3491 200.687 80.6511C202.309 79.8233 203.881 78.9031 205.397 77.8949L206.643 76.8881C207.56 76.3188 208.298 75.5014 208.77 74.5305C209.242 73.5596 209.429 72.4749 209.311 71.4019C209.192 70.3289 208.772 69.3114 208.099 68.4672C207.426 67.623 206.528 66.9866 205.508 66.6316C204.49 66.277 203.391 66.2178 202.34 66.4609C201.29 66.704 200.329 67.2394 199.569 68.0054L198.307 69.0122C196.989 70.2625 195.744 71.5873 194.578 72.98C192.325 75.5569 189.833 77.9035 187.128 80.0026C186.037 80.447 184.843 80.577 183.681 80.378L181.522 81.9139C169.064 68.8587 152.28 60.7524 134.293 59.1312C134.293 58.2779 134.182 56.998 134.165 56.5969C133.201 55.9314 132.527 54.916 132.305 53.764C132.186 50.3181 132.404 46.8688 132.953 43.4649C133.32 41.673 133.576 39.8811 133.738 38.0636V36.357C133.909 33.0804 131.434 30.2731 128.149 30.0427L128.073 30ZM120.956 74.0808L119.25 103.886H119.122C119.036 105.729 117.953 107.299 116.289 108.187C114.625 109.074 112.654 108.81 111.169 107.726L86.7223 90.4041C94.5034 82.7615 104.265 77.4447 114.906 75.0535C116.903 74.6269 118.917 74.3026 120.939 74.0808H120.956ZM135.189 74.0808C148.031 75.6764 159.985 81.4446 169.235 90.498L145.019 107.709C143.526 108.903 141.478 109.142 139.745 108.323C138.013 107.504 136.904 105.763 136.878 103.852L135.189 74.0808ZM77.8481 101.616L100.204 121.566V121.694C101.595 122.906 102.201 124.792 101.791 126.592C101.382 128.392 99.9994 129.817 98.2331 130.304V130.389L69.5456 138.64C68.1261 125.716 71.0502 112.686 77.8566 101.608L77.8481 101.616ZM178.135 101.616C184.927 112.666 187.931 125.628 186.685 138.538L157.955 130.261V130.15C156.163 129.664 154.797 128.239 154.396 126.438C153.995 124.638 154.593 122.769 155.984 121.541L178.169 101.685L178.135 101.616ZM123.49 123.119H132.638L138.227 130.218L136.196 139.093L127.979 143.043L119.744 139.093L117.807 130.218L123.49 123.119ZM152.792 147.335C153.176 147.293 153.646 147.293 153.944 147.335L183.528 152.327C179.261 164.614 170.839 175.11 159.849 182.132L148.415 154.452C148.1 153.709 147.969 152.902 148.032 152.098C148.094 151.294 148.349 150.517 148.775 149.832C149.201 149.147 149.785 148.574 150.478 148.162C151.171 147.75 151.953 147.51 152.758 147.463L152.792 147.335ZM103.105 147.463C104.778 147.489 106.322 148.351 107.235 149.75C108.148 151.15 108.293 152.907 107.636 154.443V154.554L96.2706 182.013C85.3912 175.042 77.1313 164.674 72.7369 152.515L102.064 147.54C102.389 147.506 102.721 147.506 103.054 147.54L103.105 147.463ZM127.885 159.409C128.817 159.38 129.739 159.61 130.548 160.074C131.357 160.538 132.022 161.218 132.467 162.037H132.578L147.033 188.122L141.256 189.829C130.624 192.261 119.523 191.689 109.189 188.174L123.695 162.089C124.574 160.553 126.195 159.614 127.962 159.571L127.885 159.409Z"/></svg>
        </g>
         
        <g transform="translate(1200, 0)">
          <svg xmlns="http://www.w3.org/2000/svg" width="256" height="256" fill="none" viewBox="0 0 256 256"><rect width="256" height="256" fill="#F4F2ED" rx="60"/><g clip-path="url(#clip0_7_150)"><path fill="#00678C" fill-rule="evenodd" d="M203.801 178.21C194.011 177.938 186.416 178.941 180.051 181.619C178.218 182.355 175.277 182.355 175.035 184.662C176.015 185.63 176.133 187.214 176.992 188.556C178.459 190.991 181.033 194.271 183.357 195.973L191.191 201.571C195.965 204.488 201.351 206.193 206.002 209.113C208.696 210.817 211.388 213.007 214.082 214.834C215.454 215.807 216.285 217.392 218 217.997V217.629C217.144 216.538 216.897 214.957 216.044 213.735L212.367 210.209C208.82 205.465 204.41 201.325 199.636 197.922C195.718 195.245 187.152 191.596 185.56 187.097L185.319 186.824C188.008 186.552 191.191 185.605 193.764 184.875C197.929 183.784 201.721 184.024 206.002 182.93L211.882 181.226V180.135C209.678 177.946 208.087 175.025 205.763 172.959C199.521 167.606 192.661 162.373 185.56 157.994C181.766 155.562 176.868 153.977 172.829 151.913C171.356 151.182 168.911 150.817 168.055 149.601C165.846 146.929 164.625 143.397 163.034 140.232L152.997 119.064C150.794 114.319 149.444 109.574 146.755 105.195C134.144 84.5124 120.431 71.9828 99.375 59.6932C94.8477 57.1382 89.4616 56.0393 83.7353 54.7032L74.5546 54.2124C72.5928 53.3616 70.6364 51.0493 68.9216 49.9531C61.9441 45.5739 43.9475 36.0847 38.8029 48.5897C35.4966 56.4974 43.7006 64.2824 46.4855 68.299C48.5708 71.0966 51.2597 74.2597 52.7332 77.4228C53.5563 79.4897 53.8307 81.682 54.6895 83.8717C56.6458 89.2243 58.4842 95.1878 61.0551 100.178C62.427 102.733 63.8675 105.413 65.5824 107.723C66.5619 109.086 68.2768 109.67 68.6417 111.859C66.9268 114.294 66.8089 117.94 65.8293 120.986C61.42 134.734 63.1349 151.766 69.377 161.888C71.3389 164.928 75.9622 171.622 82.2345 169.065C87.744 166.875 86.5148 159.941 88.1062 153.857C88.4766 152.399 88.2297 151.425 88.9623 150.449V150.722L93.9834 160.819C97.7781 166.78 104.391 172.986 109.897 177.125C112.833 179.315 115.16 183.089 118.831 184.425V184.057H118.59C117.854 182.966 116.751 182.475 115.772 181.624C113.569 179.435 111.121 176.757 109.406 174.325C104.267 167.513 99.7399 159.968 95.6983 152.183C93.7365 148.412 92.0216 144.275 90.4357 140.504C89.6949 139.043 89.6949 136.85 88.4739 136.125C86.6355 138.797 83.9466 141.115 82.5939 144.398C80.2672 149.628 80.0257 156.077 79.1697 162.769C78.6758 162.891 78.8953 162.769 78.6758 163.041C74.7631 162.071 73.4132 158.051 71.9453 154.648C68.274 146.01 67.6594 132.141 70.8422 122.164C71.6983 119.609 75.375 111.579 73.9071 109.146C73.1662 106.834 70.7242 105.498 69.3743 103.671C67.7829 101.359 66.0735 98.4409 64.9705 95.8859C62.0346 89.0689 60.5667 81.5293 57.3812 74.7151C55.9077 71.552 53.3396 68.2662 51.257 65.3486C48.9303 62.0628 46.3648 59.7505 44.5265 55.8593C43.9146 54.4959 43.0585 52.3309 44.0381 50.8693C44.2795 49.8959 44.7734 49.5059 45.7475 49.2878C47.3389 47.9244 51.8716 49.6532 53.463 50.3785C57.9903 52.2054 61.7849 53.907 65.5796 56.4592C67.2945 57.6754 69.1329 59.9877 71.3361 60.5985H73.9098C77.8279 61.4493 82.2317 60.8712 85.9002 61.9619C92.3893 64.0343 98.2637 67.0719 103.532 70.3604C119.567 80.4577 132.792 94.8143 141.725 111.971C143.193 114.769 143.805 117.324 145.155 120.244C147.729 126.208 150.912 132.289 153.477 138.132C156.051 143.85 158.498 149.694 162.17 154.438C164.008 156.993 171.35 158.329 174.654 159.668C177.104 160.759 180.896 161.741 183.105 163.077C187.264 165.632 191.427 168.552 195.342 171.35C197.298 172.806 203.423 175.849 203.787 178.276L203.801 178.21ZM78.9584 72.4873C77.267 72.4724 75.5809 72.6769 73.9427 73.0954V73.3681H74.1842C75.1637 75.315 76.8786 76.6538 78.1023 78.3581L80.9202 84.1989L81.1616 83.9262C82.8765 82.71 83.7353 80.7631 83.7353 77.8454C83 76.9947 82.8793 76.1412 82.2674 75.2904C81.5321 74.0743 79.9407 73.4635 78.9584 72.4928V72.4873Z" clip-rule="evenodd"/></g><defs><clipPath id="clip0_7_150"><rect width="180" height="180" fill="#fff" transform="translate(38 38)"/></clipPath></defs></svg>
        </g>
         
        <g transform="translate(1500, 0)">
          <svg xmlns="http://www.w3.org/2000/svg" width="256" height="256" fill="none" viewBox="0 0 256 256"><rect width="256" height="256" fill="#009639" rx="60"/><path fill="#fff" d="M195.338 213C190.746 213 186.224 211.213 182.847 207.829L78.3239 103.307V195.34C78.3239 205.095 70.4184 213 60.662 213C50.9126 213 43 205.095 43 195.34V60.6678C43 53.5189 47.3095 47.0834 53.908 44.3496C60.4995 41.6087 68.1012 43.1204 73.1525 48.1784L177.676 152.7V60.6678C177.676 50.9122 185.582 43.0074 195.338 43.0074C205.095 43.0074 213 50.9122 213 60.6678V195.34C213 202.481 208.69 208.924 202.092 211.658C199.909 212.562 197.62 213 195.338 213Z"/></svg>
        </g>
         
        <g transform="translate(1800, 0)">
          <svg width="256" height="256" viewBox="0 0 256 256" fill="none" xmlns="http://www.w3.org/2000/svg">
<rect width="256" height="256" rx="60" fill="#F4F2ED"/>
<path d="M61.8516 48.7731C30.8478 82.4656 38.3617 145.254 78.6254 189.01C118.889 232.765 176.658 240.92 207.662 207.228C238.666 173.535 231.173 110.744 190.909 66.9886C150.646 23.2331 92.8555 15.0805 61.8516 48.7731V48.7731ZM89.9653 62.769C114.326 36.2956 159.117 42.0543 190.017 75.6337C220.917 109.213 226.216 157.889 201.855 184.362C177.494 210.836 132.691 205.09 101.792 171.51C70.8917 137.931 65.6044 89.2424 89.9653 62.769V62.769Z" fill="url(#paint0_radial_307_197)"/>
<path d="M196.287 60.7383H179.516C176.98 60.7383 174.924 62.7943 174.924 65.3305V82.1019C174.924 84.6381 176.98 86.6941 179.516 86.6941H196.287C198.824 86.6941 200.88 84.6381 200.88 82.1019V65.3305C200.88 62.7943 198.824 60.7383 196.287 60.7383Z" fill="#FF7F2A" stroke="#D45500" stroke-width="6.28859"/>
<path d="M79.3188 94.9331H39.8162C33.8426 94.9331 29 99.7757 29 105.749V145.252C29 151.225 33.8426 156.068 39.8162 156.068H79.3188C85.2924 156.068 90.135 151.225 90.135 145.252V105.749C90.135 99.7757 85.2924 94.9331 79.3188 94.9331Z" fill="#FF7F2A" stroke="#D45500" stroke-width="6.28859"/>
<path d="M217.396 174.966H193.531C189.922 174.966 186.996 177.892 186.996 181.501V205.366C186.996 208.975 189.922 211.901 193.531 211.901H217.396C221.005 211.901 223.931 208.975 223.931 205.366V181.501C223.931 177.892 221.005 174.966 217.396 174.966Z" fill="#FF7F2A" stroke="#D45500" stroke-width="6.28859"/>
<defs>
<radialGradient id="paint0_radial_307_197" cx="0" cy="0" r="1" gradientUnits="userSpaceOnUse" gradientTransform="translate(89.314 200.307) rotate(-47.3797) scale(300.774 999.837)">
<stop stop-color="#008CBE"/>
<stop offset="1" stop-color="#B2FFFF"/>
</radialGradient>
</defs>
</svg>

        </g>
         
        <g transform="translate(2100, 0)">
          <svg width="256" height="256" viewBox="0 0 256 256" fill="none" xmlns="http://www.w3.org/2000/svg">
<rect width="256" height="256" rx="60" fill="#F4F2ED"/>
<path d="M180.975 90.4153L167.567 103.824C189.508 125.765 189.508 161.115 167.567 182.65C145.625 204.591 110.275 204.591 88.7404 182.65C66.7991 160.709 66.7991 125.359 88.7404 103.824L123.481 69.0835L128.357 64.2077V38L75.9413 90.4153C46.6862 119.67 46.6862 166.804 75.9413 196.059C105.196 225.314 152.33 225.314 180.975 196.059C210.23 166.6 210.23 119.67 180.975 90.4153Z" fill="#EE4C2C"/>
<path d="M154.768 87.1646C160.153 87.1646 164.519 82.7986 164.519 77.4129C164.519 72.0272 160.153 67.6611 154.768 67.6611C149.382 67.6611 145.016 72.0272 145.016 77.4129C145.016 82.7986 149.382 87.1646 154.768 87.1646Z" fill="#EE4C2C"/>
</svg>

        </g>
         
        <g transform="translate(2400, 0)">
          <svg xmlns="http://www.w3.org/2000/svg" width="256" height="256" fill="none" viewBox="0 0 256 256"><rect width="256" height="256" fill="#F4F2ED" rx="60"/><g clip-path="url(#clip0_7_217)"><path fill="#A41E11" d="M220.161 174.468C209.488 180.035 154.204 202.765 142.434 208.899C130.663 215.034 124.126 214.976 114.826 210.532C105.526 206.089 46.6945 182.326 36.0904 177.257C30.7884 174.722 28.0101 172.591 28.0101 170.576V150.36C28.0101 150.36 104.609 133.685 116.978 129.247C129.348 124.809 133.627 124.65 144.157 128.505C154.687 132.359 217.606 143.711 228.003 147.523V167.459C228.003 169.458 225.607 171.7 220.172 174.479L220.161 174.468Z"/><path fill="#D82C20" d="M220.162 154.246C209.488 159.813 154.204 182.543 142.434 188.677C130.663 194.812 124.126 194.753 114.826 190.31C105.526 185.867 46.6946 162.103 36.0905 157.035C25.4864 151.966 25.2743 148.483 35.6822 144.405L116.973 112.932C129.338 108.5 133.622 108.335 144.151 112.19C154.681 116.045 209.632 137.916 220.024 141.786C230.416 145.657 230.824 148.732 220.151 154.299L220.162 154.246Z"/><path fill="#A41E11" d="M220.161 141.5C209.488 147.067 154.204 169.797 142.434 175.931C130.663 182.066 124.126 182.007 114.826 177.564C105.526 173.121 46.6945 149.357 36.0904 144.289C30.7884 141.754 28.0101 139.623 28.0101 137.608V117.391C28.0101 117.391 104.609 100.716 116.978 96.2787C129.348 91.8409 133.627 91.6818 144.157 95.5364C154.687 99.391 217.606 110.743 228.003 114.555V134.491C228.003 136.489 225.607 138.732 220.172 141.51L220.161 141.5Z"/><path fill="#D82C20" d="M220.162 121.283C209.488 126.85 154.204 149.58 142.434 155.715C130.663 161.849 124.126 161.791 114.826 157.348C105.526 152.904 46.6946 129.141 36.0905 124.072C25.4864 119.003 25.2743 115.52 35.6822 111.442L116.973 79.9748C129.338 75.537 133.622 75.378 144.151 79.2326C154.681 83.0871 209.632 104.963 220.034 108.765C230.437 112.567 230.835 115.711 220.162 121.278V121.283Z"/><path fill="#A41E11" d="M220.161 107.312C209.488 112.879 154.204 135.609 142.434 141.749C130.663 147.889 124.126 147.825 114.826 143.382C105.526 138.939 46.6945 115.175 36.0904 110.106C30.7884 107.572 28.0101 105.441 28.0101 103.426V83.1985C28.0101 83.1985 104.609 66.5236 116.978 62.0858C129.348 57.648 133.627 57.4889 144.157 61.3435C154.687 65.1981 217.606 76.5498 228.003 80.3619V100.298C228.003 102.297 225.607 104.539 220.172 107.318L220.161 107.312Z"/><path fill="#D82C20" d="M220.162 87.0902C209.488 92.6573 154.204 115.387 142.434 121.522C130.663 127.656 124.126 127.598 114.826 123.155C105.526 118.712 46.6946 94.9478 36.0905 89.8791C25.4864 84.8103 25.2743 81.3269 35.6822 77.2496L116.973 45.782C129.338 41.3442 133.622 41.1851 144.151 45.0397C154.681 48.8943 209.632 70.7705 220.034 74.5721C230.437 78.3736 230.835 81.5177 220.162 87.0849V87.0902Z"/><path fill="#fff" d="M132.996 78.7554L126.729 68.3369L106.719 66.5342L121.65 61.1473L117.169 52.8761L131.146 58.3372L144.326 54.0213L140.763 62.5682L154.199 67.6052L136.872 69.4079L132.996 78.7554ZM99.6143 99.497L145.954 92.3816L131.957 112.911L99.6143 99.497Z"/><path fill="#fff" d="M87.1226 92.0158C100.803 92.0158 111.894 87.7168 111.894 82.4138C111.894 77.1107 100.803 72.8118 87.1226 72.8118C73.4419 72.8118 62.3515 77.1107 62.3515 82.4138C62.3515 87.7168 73.4419 92.0158 87.1226 92.0158Z"/><path fill="#7A0C00" d="M202.113 81.0141L174.702 91.8408L174.681 70.1714L202.113 81.0141Z"/><path fill="#AD2115" d="M174.707 91.8408L171.738 93.0072L144.348 82.1805L174.691 70.1766L174.707 91.8408Z"/></g><defs><clipPath id="clip0_7_217"><rect width="200" height="200" fill="#fff" transform="translate(28 28)"/></clipPath></defs></svg>
        </g>
         
        <g transform="translate(2700, 0)">
          <svg xmlns="http://www.w3.org/2000/svg" width="256" height="256" fill="none" viewBox="0 0 256 256"><rect width="256" height="256" fill="#F4F2ED" rx="60"/><path fill="#019833" stroke="#000" stroke-width="4" d="M135.498 39.4619C128.076 32.03 116.032 32.03 108.61 39.462L33.4081 114.765C26.0001 122.183 26.0001 134.199 33.4081 141.617L108.186 216.495C115.608 223.927 127.652 223.927 135.074 216.495L210.276 141.191C217.684 133.773 217.684 121.757 210.276 114.339L135.498 39.4619Z"/><path fill="#fff" stroke="#000" stroke-width="4" d="M161.769 40.7104L159.083 43.3988V53.2693L161.435 55.6235H173.86V65.1606L91.672 148.576V55.7425H105.331L108.133 52.9365V42.9482L105.546 40.9465H33.6672L31.3158 43.3007V53.5048L33.7069 55.8988H46.2085V216.316C46.2085 222.361 50.6553 227.485 56.6396 228.335V228.335C60.4891 228.883 64.3678 227.553 67.0718 224.759L235 51.2474V43.4001L232.315 40.7117L161.769 40.7104Z"/></svg>
        </g>
         
        <g transform="translate(3000, 0)">
          <svg xmlns="http://www.w3.org/2000/svg" width="256" height="256" fill="none" viewBox="0 0 256 256"><rect width="256" height="256" fill="#F4F2ED" rx="60"/><path fill="#2489CA" d="M33.7158 100.208C33.7158 100.208 28.9814 96.795 34.6627 92.2381L47.8994 80.402C47.8994 80.402 51.6869 76.4172 55.6915 79.8891L177.84 172.368V216.714C177.84 216.714 177.781 223.678 168.844 222.908L33.7158 100.208Z"/><path fill="#1070B3" d="M65.1997 128.792L33.7157 157.415C33.7157 157.415 30.4805 159.822 33.7157 164.123L48.3333 177.418C48.3333 177.418 51.8052 181.147 56.9341 176.905L90.3119 151.596L65.1997 128.792Z"/><path fill="#0877B9" d="M120.474 129.029L178.215 84.9391L177.84 40.83C177.84 40.83 175.374 31.2033 167.148 36.2139L90.312 106.145L120.474 129.029Z"/><path fill="#3C99D4" d="M168.844 222.968C172.198 226.4 176.262 225.276 176.262 225.276L221.259 203.103C227.019 199.177 226.21 194.305 226.21 194.305V61.8982C226.21 56.0788 220.252 54.0667 220.252 54.0667L181.253 35.267C172.731 30 167.148 36.2139 167.148 36.2139C167.148 36.2139 174.328 31.0455 177.84 40.83V215.905C177.84 217.109 177.583 218.292 177.071 219.358C176.045 221.429 173.816 223.362 168.47 222.553L168.844 222.968Z"/></svg>
        </g>
         
        <g transform="translate(3300, 0)">
          <svg width="256" height="256" viewBox="0 0 256 256" fill="none" xmlns="http://www.w3.org/2000/svg">
<g clip-path="url(#clip0_33_618)">
<path d="M196 0H60C26.8629 0 0 26.8629 0 60V196C0 229.137 26.8629 256 60 256H196C229.137 256 256 229.137 256 196V60C256 26.8629 229.137 0 196 0Z" fill="#F4F2ED"/>
<g clip-path="url(#clip1_33_618)">
<path d="M127.5 41C119.711 60.0976 114.981 72.6074 106.309 91.1373C111.626 96.7737 118.161 103.313 128.76 110.727C117.365 106.037 109.597 101.342 103.788 96.4565C92.6887 119.617 75.2882 152.594 40 216C67.7284 199.992 89.2239 190.118 109.257 186.349C108.4 182.655 107.942 178.64 107.975 174.472L107.996 173.596C108.436 155.826 117.682 142.163 128.632 143.09C139.582 144.018 148.106 159.18 147.666 176.95C147.583 180.297 147.194 183.513 146.534 186.499C166.351 190.377 187.644 200.207 215 216C209.605 206.068 204.773 197.119 200.175 188.592C192.931 182.978 185.38 175.674 169.968 167.764C180.561 170.516 188.153 173.699 194.065 177.249C147.31 90.2001 143.533 78.6253 127.5 41Z" fill="#1793D1"/>
<path d="M176.755 145.015C138.825 93.5323 130.033 52.0391 127.806 42.1328C148.039 88.8013 147.901 89.3736 176.755 145.015Z" fill="white" fill-opacity="0.16568"/>
<path d="M127.821 41.7482C126.848 44.1402 125.9 46.4614 125.002 48.6696C124.006 51.1157 123.059 53.451 122.118 55.7405C121.177 58.03 120.244 60.2643 119.319 62.4696C118.394 64.6751 117.467 66.8554 116.521 69.0492C115.574 71.243 114.622 73.4596 113.615 75.7143C112.609 77.969 111.558 80.2689 110.454 82.657C109.349 85.0452 108.191 87.5185 106.95 90.1125C106.778 90.4718 106.57 90.8807 106.395 91.2447C111.696 96.8591 118.222 103.356 128.761 110.727C117.395 106.05 109.635 101.372 103.831 96.4998C103.53 97.115 103.266 97.6643 102.956 98.2943C102.547 99.1234 102.056 100.066 101.631 100.922C100.885 102.451 100.106 104.022 99.3027 105.643C98.9939 106.257 98.7229 106.788 98.4054 107.416C93.3329 117.596 87.04 129.782 78.9443 144.928C101.138 132.424 125.076 114.384 168.559 129.911C166.379 125.781 164.375 121.909 162.492 118.268C160.61 114.627 158.861 111.217 157.237 107.993C155.614 104.769 154.113 101.729 152.708 98.8497C151.304 95.9705 150.002 93.2529 148.778 90.6465C147.553 88.0402 146.4 85.5323 145.317 83.127C144.234 80.7218 143.201 78.4175 142.22 76.1415C141.238 73.8654 140.298 71.631 139.378 69.4124C138.459 67.1938 137.561 64.9805 136.665 62.7473C136.345 61.9494 136.025 61.1181 135.704 60.312C133.251 54.553 130.732 48.5855 127.821 41.7482Z" fill="url(#paint0_linear_33_618)"/>
</g>
</g>
<defs>
<linearGradient id="paint0_linear_33_618" x1="127.904" y1="61.7314" x2="104.123" y2="133.77" gradientUnits="userSpaceOnUse">
<stop stop-color="white" stop-opacity="0"/>
<stop offset="1" stop-color="white" stop-opacity="0.27451"/>
</linearGradient>
<clipPath id="clip0_33_618">
<rect width="256" height="256" fill="white"/>
</clipPath>
<clipPath id="clip1_33_618">
<rect width="175" height="175" fill="white" transform="translate(40 41)"/>
</clipPath>
</defs>
</svg>

        </g>
         
        <g transform="translate(3600, 0)">
          <svg width="256" height="256" viewBox="0 0 256 256" fill="none" xmlns="http://www.w3.org/2000/svg">
<g clip-path="url(#clip0_33_877)">
<path d="M196 0H60C26.8629 0 0 26.8629 0 60V196C0 229.137 26.8629 256 60 256H196C229.137 256 256 229.137 256 196V60C256 26.8629 229.137 0 196 0Z" fill="#F4F2ED"/>
<g clip-path="url(#clip1_33_877)">
<path d="M215 127.5C215 175.825 175.825 215 127.5 215C79.1751 215 40 175.825 40 127.5C40 79.1751 79.1751 40 127.5 40C175.825 40 215 79.1751 215 127.5Z" fill="#D70751"/>
<path d="M163.86 119.01C163.979 122.192 162.932 123.738 161.985 126.473L160.282 127.319C158.89 130.025 160.42 129.037 159.423 131.187C157.247 133.119 152.83 137.231 151.416 137.608C150.382 137.585 152.115 136.388 152.342 135.921C149.432 137.917 150.006 138.918 145.556 140.134L145.427 139.843C134.457 145.006 119.216 134.776 119.416 120.821C119.3 121.706 119.083 121.485 118.841 121.841C118.274 114.662 122.157 107.451 128.705 104.502C135.11 101.333 142.618 102.632 147.203 106.911C144.684 103.611 139.668 100.111 133.727 100.435C127.904 100.53 122.456 104.23 120.638 108.248C117.657 110.124 117.309 115.486 116.01 116.469C114.26 129.323 119.299 134.874 127.824 141.407C129.162 142.311 128.201 142.449 128.38 143.137C125.548 141.812 122.956 139.81 120.823 137.359C121.956 139.014 123.176 140.624 124.755 141.888C122.083 140.986 118.515 135.418 117.476 135.191C122.079 143.433 136.149 149.645 143.52 146.562C140.109 146.689 135.777 146.632 131.948 145.216C130.334 144.388 128.149 142.674 128.54 142.354C138.597 146.109 148.983 145.196 157.683 138.223C159.899 136.498 162.317 133.565 163.016 133.525C161.964 135.108 163.196 134.286 162.388 135.684C164.59 132.126 161.427 134.235 164.666 129.541L165.862 131.187C165.414 128.232 169.53 124.647 169.111 119.977C170.055 118.549 170.163 121.515 169.162 124.8C170.552 121.156 169.53 120.57 169.885 117.562C170.269 118.573 170.778 119.646 171.038 120.715C170.132 117.192 171.964 114.784 172.419 112.736C171.969 112.539 171.022 114.293 170.803 110.134C170.836 108.327 171.308 109.187 171.488 108.742C171.135 108.537 170.204 107.152 169.639 104.496C170.046 103.87 170.735 106.114 171.293 106.205C170.934 104.094 170.316 102.483 170.29 100.862C168.657 97.4509 169.712 101.318 168.389 99.3974C166.651 93.9792 169.83 98.1397 170.046 95.6795C172.678 99.4922 174.178 105.406 174.869 107.854C174.342 104.868 173.493 101.975 172.454 99.1761C173.256 99.5146 171.164 93.0349 173.495 97.3258C171.008 88.1791 162.857 79.6317 155.356 75.6227C156.271 76.4617 157.429 77.5153 157.016 77.6812C153.283 75.462 153.939 75.2869 153.404 74.3492C150.369 73.1125 150.166 74.4506 148.157 74.3519C142.428 71.3122 141.325 71.6349 136.053 69.7331L136.292 70.8552C132.498 69.5909 131.871 71.332 127.771 70.858C127.522 70.6644 129.086 70.1521 130.374 69.9664C126.705 70.451 126.876 69.242 123.286 70.0994C124.169 69.4791 125.107 69.0668 126.05 68.54C123.059 68.7218 118.907 70.2811 120.188 68.8614C115.309 71.0397 106.641 74.0965 101.778 78.6573L101.625 77.6353C99.3963 80.3102 91.9065 85.6243 91.3098 89.092L90.7132 89.2303C89.5556 91.1939 88.8037 93.4184 87.8844 95.4374C86.3684 98.0226 85.6612 96.433 85.8772 96.8387C82.8943 102.886 81.41 107.967 80.1311 112.137C81.0425 113.5 80.1536 120.345 80.4972 125.822C79.001 152.879 99.4859 179.147 121.878 185.21C125.16 186.386 130.039 186.344 134.191 186.46C129.294 185.059 128.662 185.718 123.889 184.055C120.448 182.433 119.694 180.582 117.255 178.466L118.22 180.171C113.44 178.479 115.44 178.077 111.55 176.846L112.581 175.501C111.031 175.383 108.476 172.891 107.778 171.507L106.081 171.574C104.045 169.064 102.959 167.25 103.039 165.845L102.491 166.822C101.871 165.757 94.9963 157.395 98.5627 159.341C97.9002 158.738 97.0191 158.358 96.0644 156.62L96.79 155.792C95.0766 153.583 93.6318 150.753 93.7424 149.81C94.6577 151.046 95.2925 151.277 95.9221 151.489C91.5877 140.737 91.3441 150.898 88.0634 140.545L88.7562 140.49C88.2255 139.685 87.9001 138.817 87.4734 137.962L87.7764 134.953C84.6577 131.35 86.9045 119.616 87.3562 113.183C87.6657 110.567 89.96 107.782 91.7023 103.413L90.6409 103.231C92.6717 99.6913 102.233 89.009 106.664 89.5569C108.809 86.8623 106.237 89.5464 105.817 88.8694C110.53 83.9925 112.012 85.4241 115.193 84.5457C118.621 82.5109 112.249 85.3411 113.874 83.77C119.805 82.2567 118.076 80.3273 125.81 79.5595C126.627 80.0231 123.918 80.2759 123.238 80.8778C128.177 78.4598 138.87 79.0116 145.818 82.2185C153.875 85.9865 162.932 97.1192 163.29 107.593L163.697 107.703C163.491 111.867 164.334 116.683 162.871 121.106L163.86 119.01Z" fill="white"/>
</g>
</g>
<defs>
<clipPath id="clip0_33_877">
<rect width="256" height="256" fill="white"/>
</clipPath>
<clipPath id="clip1_33_877">
<rect width="175" height="175" fill="white" transform="translate(40 40)"/>
</clipPath>
</defs>
</svg>

        </g>
         
        <g transform="translate(3900, 0)">
          <svg width="256" height="256" viewBox="0 0 256 256" fill="none" xmlns="http://www.w3.org/2000/svg">
<g clip-path="url(#clip0_33_897)">
<path d="M196 0H60C26.8629 0 0 26.8629 0 60V196C0 229.137 26.8629 256 60 256H196C229.137 256 256 229.137 256 196V60C256 26.8629 229.137 0 196 0Z" fill="#F4F2ED"/>
<path d="M127.5 206.25C170.992 206.25 206.25 170.992 206.25 127.5C206.25 84.0076 170.992 48.75 127.5 48.75C84.0076 48.75 48.75 84.0076 48.75 127.5C48.75 170.992 84.0076 206.25 127.5 206.25Z" fill="#F47421"/>
<path d="M127.5 165.694C148.594 165.694 165.694 148.594 165.694 127.5C165.694 106.406 148.594 89.3062 127.5 89.3062C106.406 89.3062 89.3062 106.406 89.3062 127.5C89.3062 148.594 106.406 165.694 127.5 165.694Z" stroke="white" stroke-width="8.55"/>
<path d="M73.9499 142.266C82.1048 142.266 88.7157 135.655 88.7157 127.5C88.7157 119.345 82.1048 112.734 73.9499 112.734C65.795 112.734 59.1841 119.345 59.1841 127.5C59.1841 135.655 65.795 142.266 73.9499 142.266Z" fill="#F47421"/>
<path d="M157.25 127.5H174.75H157.25Z" fill="black"/>
<path d="M157.25 127.5H174.75" stroke="#F47421" stroke-width="3.2378"/>
<path d="M73.9498 138.013C79.756 138.013 84.4628 133.306 84.4628 127.5C84.4628 121.694 79.756 116.987 73.9498 116.987C68.1436 116.987 63.4368 121.694 63.4368 127.5C63.4368 133.306 68.1436 138.013 73.9498 138.013Z" fill="white"/>
<path d="M141.487 73.7415C137.41 80.8039 139.83 89.8345 146.892 93.9119C153.954 97.9894 162.985 95.5697 167.062 88.5073C171.14 81.4449 168.72 72.4143 161.658 68.3368C154.595 64.2594 145.565 66.6791 141.487 73.7415Z" fill="#F47421"/>
<path d="M112.625 153.264L103.875 168.42L112.625 153.264Z" fill="black"/>
<path d="M112.625 153.264L103.875 168.42" stroke="#F47421" stroke-width="3.2378"/>
<path d="M145.17 75.8679C142.267 80.8962 143.99 87.3259 149.018 90.229C154.046 93.1321 160.476 91.4092 163.379 86.3809C166.282 81.3526 164.559 74.9229 159.531 72.0198C154.503 69.1168 148.073 70.8396 145.17 75.8679Z" fill="white"/>
<path d="M167.062 166.493C162.985 159.43 153.954 157.011 146.892 161.088C139.829 165.166 137.41 174.196 141.487 181.259C145.565 188.321 154.595 190.741 161.658 186.663C168.72 182.586 171.14 173.555 167.062 166.493Z" fill="#F47421"/>
<path d="M112.625 101.736L103.875 86.5804L112.625 101.736Z" fill="black"/>
<path d="M112.625 101.736L103.875 86.5804" stroke="#F47421" stroke-width="3.2378"/>
<path d="M163.379 168.619C160.476 163.591 154.047 161.868 149.018 164.771C143.99 167.674 142.267 174.104 145.17 179.132C148.073 184.161 154.503 185.883 159.531 182.98C164.56 180.077 166.282 173.648 163.379 168.619Z" fill="white"/>
</g>
<defs>
<clipPath id="clip0_33_897">
<rect width="256" height="256" fill="white"/>
</clipPath>
</defs>
</svg>

        </g>
         
        <g transform="translate(4200, 0)">
          <svg width="256" height="256" viewBox="0 0 256 256" fill="none" xmlns="http://www.w3.org/2000/svg">
<g clip-path="url(#clip0_33_477)">
<path d="M196 0H60C26.8629 0 0 26.8629 0 60V196C0 229.137 26.8629 256 60 256H196C229.137 256 256 229.137 256 196V60C256 26.8629 229.137 0 196 0Z" fill="#F4F2ED"/>
<path d="M40 65.6631L110.968 55.9983L111 124.453L40.0656 124.857L40 65.6631ZM110.935 132.34L110.99 200.855L40.0557 191.102L40.0517 131.881L110.935 132.34ZM119.537 54.7335L213.636 41V123.582L119.537 124.33V54.7335ZM213.658 132.984L213.636 215.195L119.537 201.914L119.406 132.831L213.658 132.984Z" fill="#00ADEF"/>
</g>
<defs>
<clipPath id="clip0_33_477">
<rect width="256" height="256" fill="white"/>
</clipPath>
</defs>
</svg>

        </g>
        
  </svg>
  