
  <svg width="835.5" height="104.25" viewBox="0 0 4456 556" fill="none" xmlns="http://www.w3.org/2000/svg" xmlns:xlink="http://www.w3.org/1999/xlink" version="1.1">
    
        <g transform="translate(0, 0)">
          <svg width="256" height="256" viewBox="0 0 256 256" fill="none" xmlns="http://www.w3.org/2000/svg">
<rect width="256" height="256" rx="60" fill="#F4F2ED"/>
<path fill-rule="evenodd" clip-rule="evenodd" d="M128.217 28C124.394 28 120.571 28.2931 116.977 28.5862C122.325 32.222 127.366 36.2879 132.053 40.7437L135.876 44.2992L132.053 48.1223C128.68 51.2594 125.522 54.6184 122.597 58.177V58.4701C122.072 59.0326 121.578 59.624 121.119 60.2415C123.477 59.9976 125.847 59.8997 128.217 59.9484C146.089 60.1931 163.146 67.4644 175.697 80.1891C188.25 92.9138 195.286 110.069 195.286 127.942C195.286 145.816 188.25 162.97 175.697 175.696C163.146 188.42 146.089 195.691 128.217 195.936C115.678 196.009 103.375 192.522 92.7386 185.881C87.6368 186.471 82.5055 186.769 77.3698 186.773C74.9996 186.824 72.6286 186.722 70.2715 186.467C70.5453 194.48 71.2386 202.473 72.3488 210.413C88.7999 221.666 108.285 227.649 128.217 227.566C141.321 227.566 154.296 224.985 166.402 219.97C178.509 214.956 189.509 207.606 198.774 198.34C208.04 189.074 215.39 178.074 220.404 165.968C225.419 153.862 228 140.886 228 127.783C228 114.679 225.419 101.704 220.404 89.5977C215.39 77.4915 208.04 66.4915 198.774 57.2258C189.509 47.96 178.509 40.6101 166.402 35.5955C154.296 30.581 141.321 28 128.217 28ZM74.1191 43.9627C80.9446 39.5324 88.2891 35.9586 95.9871 33.3217C93.4723 37.9293 91.1967 42.6635 89.1694 47.5055C84.2228 46.044 79.1982 44.8612 74.1191 43.9627ZM68.5092 80.2438C72.4996 79.9774 76.2913 79.7244 80.3256 79.7244C76.1448 83.7231 72.5611 88.3025 69.6846 93.3219C68.6107 89.0455 67.8189 84.7034 67.3143 80.3233L68.5092 80.2438ZM64.9568 180.54V181.126L64.0647 180.858C56.4582 180.216 48.9332 178.829 41.5976 176.717L41.0114 176.424L41.3045 175.825C43.5735 168.753 46.3372 161.85 49.5752 155.167L49.8811 154.568L50.4672 154.861C55.4405 157.701 60.5717 160.254 65.8361 162.507L66.4351 162.801V163.387C65.488 169.056 64.9937 174.792 64.9568 180.54ZM64.9565 186.438V185.851H64.3576C57.8892 185.178 51.4703 184.093 45.1401 182.602L43.3688 182.308L44.2608 183.787C50.0508 192.488 57.1277 200.262 65.2496 206.84L66.4348 208.025V205.948C65.5317 199.482 65.038 192.965 64.9565 186.438ZM121.118 44.8437C119.054 46.9209 116.976 49.2784 114.912 51.6488C114.657 51.9418 113.141 53.7132 111.356 56.0963C107.225 54.1327 102.99 52.4424 98.793 50.7671L98.0646 50.4764C100.399 44.753 103.164 39.2149 106.335 33.9096C111.452 37.2922 116.386 40.9419 121.118 44.8437ZM47.2177 108.706L47.5108 109.292L48.0971 109C52.7506 105.675 57.5881 102.616 62.5866 99.8368L63.1728 99.5434V98.9447C61.6406 93.2306 60.5541 87.4062 59.9231 81.5241V80.9251H59.3369C51.9832 82.2664 44.76 84.245 37.7492 86.8382L37.163 87.1313L37.4561 87.7303C39.7948 95.113 43.0758 102.163 47.2177 108.706ZM45.4458 118.751L46.032 118.165L46.3888 119.006C49.6031 123.521 53.0574 127.86 56.7367 132.004L57.0298 132.298L56.7367 132.896C53.4928 137.246 50.5139 141.786 47.8161 146.494L47.523 147.08L46.9368 146.787C41.168 142.989 35.6356 138.844 30.3701 134.375L29.7711 133.776L30.3701 133.24C35.0214 128.036 40.0612 123.192 45.4458 118.751ZM85.347 181.426H87.1183L85.6401 180.24C80.2795 175.914 75.6831 170.719 72.0426 164.872V164.578L70.8701 163.98V164.872C70.1661 170.068 69.7704 175.302 69.6849 180.546V181.132H70.2711C71.4563 181.132 72.6383 181.206 73.8203 181.279C75.0023 181.353 76.1842 181.426 77.3694 181.426H85.347ZM86.2388 56.3838C84.5482 61.1196 83.1648 65.9595 82.097 70.8734C76.9618 70.8568 71.83 71.1419 66.7282 71.7272C66.3885 65.2244 66.4864 58.7062 67.0213 52.2166C73.5168 53.1535 79.9385 54.546 86.2388 56.3838ZM91.5527 70.5573C95.9752 67.8824 100.628 65.6092 105.456 63.7649C102.013 62.0385 98.4531 60.5566 94.8024 59.3301C93.6299 62.8728 92.4448 66.7214 91.5527 70.5573ZM44.5669 151.617H45.1403L44.8599 152.79C42.1945 158.179 39.8249 163.71 37.7617 169.357L37.1755 170.835L36.5893 169.357C32.4989 160.568 29.8031 151.195 28.599 141.576L28.3059 139.791L29.7842 140.976C34.5161 144.787 39.4509 148.34 44.5669 151.617ZM57.8585 56.9694C51.9156 62.8914 46.7511 69.5462 42.4896 76.7731C47.4731 75.3059 52.7578 74.1399 58.0324 72.9763L58.1516 72.95C57.8585 67.6104 57.8585 62.2962 57.8585 56.9694ZM60.8149 125.256V127.027L59.9738 125.536C57.7314 123.072 55.665 120.262 53.6354 117.503C52.9893 116.625 52.3463 115.751 51.7032 114.895L50.8111 114.297L51.4101 114.003C55.0802 111.446 58.7502 109.172 62.4203 106.897L62.8794 106.612L64.3576 105.733L63.7714 107.517C62.0232 113.277 61.0295 119.24 60.8149 125.256ZM61.6945 137.382L61.4014 135.61L60.5221 137.089C57.8587 140.912 55.1953 145.066 52.8759 149.208L52.57 149.794L53.169 150.087C57.1838 152.392 61.4878 154.408 65.7998 156.427L66.1675 156.6L67.6458 157.186L67.0596 155.708C64.385 149.894 62.5774 143.72 61.6945 137.382ZM42.7827 113.085L42.1837 113.379C37.3555 116.984 32.9898 121.169 29.1852 125.842L28 127.027V125.256C28.2237 115.715 29.8159 106.256 32.7279 97.1686L33.3269 95.3971L33.9131 96.8752C36.4792 102.235 39.3425 107.446 42.4896 112.487L42.7827 113.085Z" fill="#43B049"/>
</svg>

        </g>
         
        <g transform="translate(300, 0)">
          <svg xmlns="http://www.w3.org/2000/svg" width="256" height="256" fill="none" viewBox="0 0 256 256"><rect width="256" height="256" fill="#F4F2ED" rx="60"/><path fill="#FEFEFE" fill-rule="evenodd" d="M203.819 68.8354L140.679 31.3552C133.143 26.8816 123.854 26.8816 116.318 31.3552L53.1774 68.8354C45.6434 73.3091 41 81.575 41 90.5223V165.483C41 174.428 45.6434 182.698 53.1796 187.172L116.32 224.645C120.088 226.883 124.29 227.999 128.499 227.999C132.706 227.999 136.909 226.883 140.677 224.645L203.817 187.172C211.353 182.698 215.999 174.428 215.999 165.483V90.5223C215.999 81.575 211.353 73.3091 203.819 68.8354Z" clip-rule="evenodd"/><path fill="#3E474A" fill-rule="evenodd" d="M118.527 220.808L55.3866 183.334C49.2108 179.668 45.3744 172.828 45.3744 165.482V90.5234C45.3744 83.1768 49.2109 76.3374 55.3844 72.673L118.527 35.1928C121.554 33.3958 125.002 32.4455 128.499 32.4455C131.994 32.4455 135.442 33.3958 138.472 35.1928L201.612 72.673C206.816 75.7619 210.326 81.1109 211.313 87.1103C209.219 82.6411 204.496 81.4262 198.993 84.6409L139.259 121.537C131.811 125.891 126.319 130.777 126.314 139.758V213.362C126.31 218.74 128.482 222.223 131.818 223.233C130.722 223.423 129.617 223.555 128.499 223.555C125.002 223.555 121.554 222.605 118.527 220.808ZM203.819 68.8343L140.679 31.3563C136.911 29.1184 132.704 28.0005 128.499 28.0005C124.293 28.0005 120.086 29.1184 116.318 31.3563L53.1774 68.8343C45.6434 73.308 41 81.5761 41 90.5234V165.482C41 174.427 45.6434 182.697 53.1796 187.171L116.32 224.646C120.09 226.882 124.293 228 128.499 228C132.706 228 136.909 226.882 140.677 224.646L203.819 187.171C211.355 182.697 215.999 174.427 215.999 165.482V90.5234C215.999 81.5761 211.355 73.308 203.819 68.8343Z" clip-rule="evenodd"/><path fill="#47B353" fill-rule="evenodd" d="M187.267 172.729L171.545 182.139C171.128 182.382 170.822 182.655 170.819 183.156V187.27C170.819 187.773 171.157 187.982 171.573 187.737L187.539 178.034C187.955 177.791 188.019 177.326 188.022 176.825V173.196C188.022 172.696 187.684 172.486 187.267 172.729Z" clip-rule="evenodd"/><path fill="#FEFEFE" fill-rule="evenodd" d="M153.788 138.098C154.297 137.84 154.716 138.157 154.723 138.823L154.776 144.262C157.053 143.356 159.031 143.114 160.823 143.528C161.212 143.632 161.384 144.161 161.225 144.789L160.028 149.609C159.935 149.973 159.73 150.341 159.483 150.57C159.379 150.672 159.273 150.751 159.168 150.804C159.007 150.886 158.848 150.912 158.696 150.881C157.878 150.696 155.933 150.271 152.873 151.821C149.663 153.446 148.54 156.235 148.562 158.305C148.589 160.777 149.857 161.526 154.235 161.601C160.069 161.698 162.59 164.247 162.651 170.123C162.711 175.893 159.631 182.089 154.919 185.886L155.023 191.27C155.029 191.918 154.608 192.661 154.099 192.919L150.91 194.756C150.399 195.014 149.98 194.696 149.973 194.048L149.918 188.752C147.187 189.887 144.419 190.161 142.651 189.451C142.318 189.321 142.175 188.829 142.307 188.269L143.463 183.401C143.555 183.017 143.758 182.633 144.034 182.389C144.131 182.294 144.232 182.221 144.333 182.17C144.516 182.078 144.695 182.058 144.847 182.115C146.752 182.757 149.189 182.457 151.532 181.271C154.509 179.765 156.5 176.729 156.469 173.713C156.44 170.976 154.959 169.839 151.356 169.812C146.77 169.825 142.495 168.921 142.424 162.17C142.367 156.612 145.257 150.828 149.832 147.171L149.775 141.736C149.768 141.068 150.176 140.333 150.701 140.069L153.788 138.098Z" clip-rule="evenodd"/></svg>
        </g>
         
        <g transform="translate(600, 0)">
          <svg xmlns="http://www.w3.org/2000/svg" width="256" height="256" fill="none" viewBox="0 0 256 256"><rect width="256" height="256" fill="#F4F2ED" rx="60"/><path fill="#fff" d="M105.552 137.283C106.327 123.403 113.091 111.174 123.296 102.505C133.304 93.9907 146.775 88.7866 161.473 88.7866C176.156 88.7866 189.627 93.9907 199.642 102.505C209.84 111.174 216.604 123.403 217.386 137.268C218.16 151.53 212.455 164.779 202.447 174.6C192.242 184.59 177.727 190.859 161.473 190.859C145.219 190.859 130.675 184.59 120.477 174.6C110.461 164.779 104.771 151.53 105.552 137.283V137.283Z"/><path fill="#265787" d="M132.782 138.529C133.179 131.407 136.65 125.132 141.886 120.684C147.021 116.315 153.933 113.645 161.475 113.645C169.009 113.645 175.921 116.315 181.059 120.684C186.292 125.132 189.763 131.407 190.164 138.521C190.561 145.839 187.634 152.637 182.499 157.677C177.262 162.803 169.815 166.019 161.475 166.019C153.135 166.019 145.672 162.803 140.439 157.677C135.301 152.637 132.381 145.839 132.782 138.529V138.529Z"/><path fill="#EA7600" d="M87.0902 152.92C87.139 155.707 88.0235 161.123 89.3504 165.353C92.1392 174.305 96.8694 182.587 103.451 189.886C110.206 197.389 118.523 203.415 128.13 207.693C138.228 212.186 149.169 214.476 160.534 214.457C171.88 214.442 182.821 212.107 192.919 207.58C202.526 203.26 210.836 197.208 217.579 189.702C224.157 182.372 228.88 174.075 231.676 165.123C233.082 160.599 233.97 156.008 234.326 151.402C234.675 146.864 234.529 142.318 233.888 137.776C232.636 128.925 229.588 120.62 224.895 113.05C220.604 106.094 215.071 100.004 208.493 94.8777L208.508 94.8663L142.122 43.6486C142.062 43.6034 142.014 43.5545 141.95 43.5131C137.594 40.1535 130.27 40.1648 125.48 43.5319C120.637 46.9366 120.083 52.5672 124.393 56.1188L124.374 56.1376L152.063 78.7617L67.6704 78.8521H67.558C60.5825 78.8597 53.8768 83.4583 52.5499 89.2697C51.1855 95.1903 55.9233 100.101 63.1762 100.128L63.165 100.154L105.94 100.071L29.6104 158.942C29.513 159.014 29.408 159.089 29.3181 159.161C22.1176 164.701 19.79 173.913 24.3254 179.743C28.9283 185.672 38.715 185.683 45.9904 179.777L87.6487 145.519C87.6487 145.519 87.0415 150.144 87.0902 152.92V152.92ZM194.137 168.407C185.554 177.194 173.537 182.177 160.534 182.203C147.512 182.226 135.495 177.288 126.912 168.516C122.718 164.241 119.636 159.323 117.736 154.084C115.873 148.935 115.15 143.47 115.63 137.956C116.083 132.567 117.68 127.426 120.229 122.775C122.733 118.202 126.181 114.071 130.439 110.576C138.783 103.744 149.405 100.045 160.515 100.03C171.636 100.015 182.251 103.679 190.603 110.489C194.853 113.969 198.298 118.086 200.802 122.65C203.362 127.298 204.947 132.42 205.419 137.825C205.892 143.331 205.168 148.788 203.305 153.941C201.401 159.195 198.331 164.113 194.137 168.407V168.407Z"/></svg>
        </g>
         
        <g transform="translate(900, 0)">
          <svg width="256" height="256" viewBox="0 0 256 256" fill="none" xmlns="http://www.w3.org/2000/svg">
<rect width="256" height="256" rx="60" fill="#394AAB"/>
<path d="M134.001 33C169.144 33 199.828 52.0863 216.262 80.4561L216.102 80.183L174.753 103.991C166.607 90.1977 151.672 80.8892 134.54 80.6975L134.001 80.6945C107.875 80.6945 86.6945 101.874 86.6945 127.999C86.6945 136.543 88.9723 144.552 92.9335 151.469C101.088 165.704 116.416 175.306 134.001 175.306C151.693 175.306 167.109 165.582 175.222 151.195L175.025 151.54L216.311 175.458C200.057 203.588 169.794 222.615 135.059 222.994L134.001 223C98.746 223 67.9753 203.796 51.582 175.276C43.5791 161.353 39 145.212 39 127.999C39 75.5334 81.5323 33 134.001 33Z" fill="white"/>
</svg>

        </g>
         
        <g transform="translate(1200, 0)">
          <svg xmlns="http://www.w3.org/2000/svg" width="256" height="256" fill="none" viewBox="0 0 256 256"><rect width="256" height="256" fill="#00599C" rx="60"/><path fill="#fff" d="M110.759 210.517C65.1254 210.517 28 173.392 28 127.759C28 82.1254 65.1254 45 110.759 45C140.204 45 167.667 60.8458 182.427 86.3533L146.611 107.079C139.224 94.3111 125.485 86.3793 110.759 86.3793C87.9416 86.3793 69.3793 104.942 69.3793 127.759C69.3793 150.575 87.9416 169.138 110.759 169.138C125.486 169.138 139.225 161.206 146.613 148.436L182.429 169.161C167.669 194.671 140.206 210.517 110.759 210.517Z"/><path fill="#fff" d="M193.517 123.161H184.321V113.965H175.127V123.161H165.931V132.356H175.127V141.552H184.321V132.356H193.517V123.161Z"/><path fill="#fff" d="M228 123.161H218.804V113.965H209.61V123.161H200.414V132.356H209.61V141.552H218.804V132.356H228V123.161Z"/></svg>
        </g>
         
        <g transform="translate(1500, 0)">
          <svg xmlns="http://www.w3.org/2000/svg" width="256" height="256" fill="none" viewBox="0 0 256 256"><rect width="256" height="256" fill="#F4F2ED" rx="60"/><g clip-path="url(#clip0_4_271)"><path fill="#fff" d="M79 171.75H211.356V135.125L186.212 120.706L181.875 118.831L79 119.537V171.75Z"/><path fill="#F38020" d="M165.575 166.887C166.806 162.669 166.338 158.8 164.288 155.925C162.413 153.287 159.244 151.762 155.438 151.587L83.2813 150.65C82.8125 150.65 82.4063 150.412 82.1688 150.062C81.9313 149.712 81.875 149.25 81.9938 148.775C82.2313 148.069 82.9313 147.544 83.6938 147.487L156.494 146.55C165.119 146.137 174.494 139.162 177.769 130.612L181.931 119.769C182.115 119.323 182.158 118.833 182.056 118.362C177.369 97.1437 158.431 81.3187 135.806 81.3187C114.931 81.3187 97.2438 94.8 90.9063 113.506C86.8 110.456 81.5313 108.819 75.9563 109.344C65.9313 110.344 57.8313 118.369 56.9063 128.394C56.6634 130.887 56.8408 133.403 57.4313 135.837C49.5447 136.051 42.0537 139.337 36.5556 144.995C31.0574 150.653 27.9874 158.236 28 166.125C28 167.587 28.125 169.062 28.2938 170.519C28.4188 171.225 29 171.75 29.7 171.75H162.875C163.258 171.743 163.629 171.614 163.934 171.383C164.24 171.151 164.464 170.829 164.575 170.462L165.575 166.887V166.887Z"/><path fill="#FAAE40" d="M188.55 120.519L186.55 120.581C186.081 120.581 185.675 120.931 185.487 121.394L182.675 131.181C181.444 135.4 181.912 139.269 183.962 142.144C185.837 144.781 189.006 146.306 192.812 146.481L208.169 147.419C208.637 147.419 209.044 147.656 209.281 148.006C209.519 148.356 209.575 148.881 209.456 149.294C209.219 150 208.519 150.525 207.756 150.581L191.756 151.519C183.081 151.931 173.756 158.906 170.481 167.456L169.306 170.444C169.069 171.031 169.481 171.619 170.119 171.619H225.1C225.418 171.623 225.729 171.522 225.983 171.331C226.238 171.14 226.422 170.869 226.506 170.562C227.481 167.096 227.983 163.513 228 159.912C227.97 149.465 223.802 139.454 216.409 132.072C209.015 124.69 198.998 120.538 188.55 120.525"/></g><defs><clipPath id="clip0_4_271"><rect width="200" height="200" fill="#fff" transform="translate(28 28)"/></clipPath></defs></svg>
        </g>
         
        <g transform="translate(1800, 0)">
          <svg xmlns="http://www.w3.org/2000/svg" width="256" height="256" fill="none" viewBox="0 0 256 256"><rect width="256" height="256" fill="#2396ED" rx="60"/><path fill="#fff" d="M141.187 122.123H161.904V103.379H141.187V122.123ZM116.525 122.123H137.241V103.379H116.525V122.123ZM92.3554 122.123H113.072V103.379H92.3554V122.123ZM68.1859 122.123H88.4093V103.379H68.1859V122.123ZM43.5233 122.123H64.2399V103.379H43.5233V122.123ZM68.1859 99.4333H88.4093V80.6896H68.1859V99.4333ZM92.3554 99.4333H113.072V80.6896H92.3554V99.4333ZM116.525 99.4333H137.241V80.6896H116.525V99.4333ZM116.525 76.7436H137.241V58H116.525V76.7436ZM228 113.738C228 113.738 219.121 105.352 200.871 108.312C198.898 94.0075 183.607 85.6222 183.607 85.6222C183.607 85.6222 169.303 102.886 179.661 122.123C176.702 123.603 171.769 125.576 164.37 125.576H28.7257C26.2594 134.948 26.2594 197.097 94.3284 197.097C143.16 197.097 179.661 174.408 196.925 132.974C222.574 134.948 228 113.738 228 113.738Z"/></svg>
        </g>
         
        <g transform="translate(2100, 0)">
          <svg xmlns="http://www.w3.org/2000/svg" width="256" height="256" fill="none" viewBox="0 0 256 256"><rect width="256" height="256" fill="#F03C2E" rx="60"/><g clip-path="url(#clip0_7_283)"><path fill="#fff" d="M224.225 119.094L136.906 31.775C135.711 30.5787 134.291 29.6298 132.729 28.9824C131.166 28.3349 129.491 28.0017 127.8 28.0017C126.109 28.0017 124.434 28.3349 122.871 28.9824C121.309 29.6298 119.889 30.5787 118.694 31.775L100.569 49.9L123.569 72.9C128.919 71.025 135.044 72.3062 139.306 76.5687C141.335 78.6014 142.752 81.1638 143.394 83.9632C144.036 86.7626 143.878 89.6862 142.937 92.4L165.106 114.569C170.469 112.719 176.656 113.912 180.937 118.206C182.361 119.63 183.49 121.32 184.26 123.18C185.03 125.04 185.426 127.033 185.426 129.046C185.425 131.059 185.029 133.052 184.258 134.912C183.487 136.771 182.358 138.461 180.934 139.884C179.511 141.308 177.821 142.436 175.961 143.206C174.101 143.977 172.108 144.373 170.095 144.372C168.082 144.372 166.088 143.975 164.229 143.205C162.369 142.434 160.679 141.305 159.256 139.881C154.756 135.381 153.644 128.756 155.919 123.212L135.244 102.537V156.944C136.745 157.686 138.116 158.666 139.306 159.844C140.729 161.267 141.858 162.956 142.629 164.816C143.399 166.675 143.795 168.668 143.795 170.681C143.795 172.694 143.399 174.687 142.629 176.546C141.858 178.406 140.729 180.096 139.306 181.519C137.883 182.942 136.193 184.071 134.334 184.841C132.474 185.611 130.481 186.008 128.469 186.008C126.456 186.008 124.463 185.611 122.604 184.841C120.744 184.071 119.054 182.942 117.631 181.519C116.206 180.096 115.076 178.407 114.305 176.548C113.533 174.688 113.136 172.694 113.136 170.681C113.136 168.668 113.533 166.675 114.305 164.815C115.076 162.955 116.206 161.266 117.631 159.844C119.112 158.369 120.756 157.25 122.65 156.5V101.587C120.825 100.837 119.112 99.7312 117.631 98.2437C115.479 96.0943 114.016 93.3526 113.428 90.3684C112.841 87.3841 113.155 84.2924 114.331 81.4875L91.6437 58.8125L31.7687 118.625C30.5716 119.821 29.6219 121.241 28.9739 122.804C28.3259 124.367 27.9924 126.042 27.9924 127.734C27.9924 129.426 28.3259 131.102 28.9739 132.665C29.6219 134.228 30.5716 135.648 31.7687 136.844L119.094 224.156C120.289 225.352 121.709 226.301 123.271 226.949C124.834 227.596 126.509 227.929 128.2 227.929C129.891 227.929 131.566 227.596 133.129 226.949C134.691 226.301 136.111 225.352 137.306 224.156L224.225 137.375C225.422 136.179 226.372 134.759 227.02 133.196C227.668 131.633 228.001 129.958 228.001 128.266C228.001 126.574 227.668 124.898 227.02 123.335C226.372 121.772 225.422 120.352 224.225 119.156"/></g><defs><clipPath id="clip0_7_283"><rect width="200" height="200" fill="#fff" transform="translate(28 28)"/></clipPath></defs></svg>
        </g>
         
        <g transform="translate(2400, 0)">
          <svg width="256" height="256" viewBox="0 0 256 256" fill="none" xmlns="http://www.w3.org/2000/svg">
<rect width="256" height="256" rx="60" fill="#F4F2ED"/>
<path d="M128.001 30C72.7791 30 28 74.7708 28 130.001C28 174.184 56.6533 211.668 96.3867 224.891C101.384 225.817 103.219 222.722 103.219 220.081C103.219 217.696 103.126 209.819 103.083 201.463C75.2631 207.512 69.3927 189.664 69.3927 189.664C64.8437 178.105 58.2894 175.032 58.2894 175.032C49.2163 168.825 58.9733 168.953 58.9733 168.953C69.0151 169.658 74.3026 179.258 74.3026 179.258C83.2217 194.546 97.6965 190.126 103.403 187.571C104.301 181.107 106.892 176.696 109.752 174.199C87.5405 171.67 64.1913 163.095 64.1913 124.778C64.1913 113.86 68.0977 104.939 74.4947 97.9362C73.4564 95.4175 70.0335 85.2465 75.4635 71.4722C75.4635 71.4722 83.8609 68.7845 102.971 81.7226C110.948 79.5069 119.502 78.3958 128.001 78.3577C136.499 78.3958 145.061 79.5069 153.052 81.7226C172.139 68.7845 180.525 71.4722 180.525 71.4722C185.968 85.2465 182.544 95.4175 181.505 97.9362C187.917 104.939 191.797 113.86 191.797 124.778C191.797 163.187 168.403 171.644 146.135 174.119C149.722 177.223 152.918 183.308 152.918 192.638C152.918 206.018 152.802 216.787 152.802 220.081C152.802 222.742 154.602 225.86 159.671 224.878C199.383 211.64 228 174.169 228 130.001C228 74.7708 183.227 30 128.001 30ZM65.4536 172.453C65.2333 172.95 64.4517 173.099 63.7396 172.758C63.0143 172.432 62.6069 171.754 62.8421 171.256C63.0574 170.744 63.8406 170.602 64.5643 170.945C65.2913 171.271 65.7053 171.955 65.4536 172.453ZM70.3725 176.842C69.8956 177.285 68.9633 177.079 68.3307 176.38C67.6766 175.683 67.554 174.751 68.0376 174.302C68.5294 173.86 69.4336 174.067 70.0893 174.764C70.7434 175.47 70.8709 176.395 70.3725 176.842ZM73.7471 182.458C73.1344 182.884 72.1325 182.485 71.5132 181.595C70.9004 180.706 70.9004 179.64 71.5264 179.212C72.1474 178.785 73.1344 179.169 73.762 180.052C74.373 180.956 74.373 182.023 73.7471 182.458ZM79.4542 188.962C78.9061 189.566 77.7386 189.404 76.8841 188.579C76.0098 187.773 75.7663 186.629 76.3161 186.024C76.8709 185.418 78.045 185.589 78.9061 186.407C79.7738 187.211 80.0387 188.364 79.4542 188.962ZM86.8301 191.157C86.5883 191.941 85.4639 192.297 84.3312 191.964C83.2002 191.621 82.46 190.704 82.6885 189.912C82.9237 189.124 84.053 188.753 85.194 189.109C86.3234 189.45 87.0652 190.361 86.8301 191.157ZM95.2242 192.089C95.2523 192.913 94.2919 193.597 93.1029 193.612C91.9073 193.639 90.9402 192.971 90.9269 192.16C90.9269 191.327 91.8659 190.65 93.0615 190.63C94.2505 190.607 95.2242 191.269 95.2242 192.089ZM103.47 191.773C103.613 192.577 102.787 193.404 101.606 193.624C100.445 193.836 99.3702 193.339 99.2229 192.541C99.0788 191.716 99.92 190.89 101.079 190.676C102.262 190.471 103.32 190.955 103.47 191.773Z" fill="#161614"/>
</svg>

        </g>
         
        <g transform="translate(2700, 0)">
          <svg width="256" height="256" viewBox="0 0 256 256" fill="none" xmlns="http://www.w3.org/2000/svg">
<rect width="256" height="256" rx="60" fill="#F4F4ED"/>
<path fill-rule="evenodd" clip-rule="evenodd" d="M76.0652 43C94.3271 43 109.13 57.8034 109.13 76.0652C109.13 94.3271 94.3271 109.13 76.0652 109.13C57.8034 109.13 43 94.3271 43 76.0652C43 57.8034 57.8034 43 76.0652 43Z" stroke="#2088FF" stroke-width="7.34783" stroke-linecap="round" stroke-linejoin="round"/>
<path fill-rule="evenodd" clip-rule="evenodd" d="M123.826 109.13C136 109.13 145.87 119 145.87 131.174C145.87 143.348 136 153.217 123.826 153.217C111.652 153.217 101.783 143.348 101.783 131.174C101.783 119 111.652 109.13 123.826 109.13Z" stroke="#2088FF" stroke-width="7.34783" stroke-linecap="round" stroke-linejoin="round"/>
<path fill-rule="evenodd" clip-rule="evenodd" d="M123.826 167.913C136 167.913 145.87 177.782 145.87 189.957C145.87 202.131 136 212 123.826 212C111.652 212 101.783 202.131 101.783 189.957C101.783 177.782 111.652 167.913 123.826 167.913Z" stroke="#2088FF" stroke-width="7.34783" stroke-linecap="round" stroke-linejoin="round"/>
<path fill-rule="evenodd" clip-rule="evenodd" d="M189.957 167.913C202.131 167.913 212 177.782 212 189.957C212 202.131 202.131 212 189.957 212C177.782 212 167.913 202.131 167.913 189.957C167.913 177.782 177.782 167.913 189.957 167.913Z" stroke="#79B8FF" stroke-width="7.34783" stroke-linecap="round" stroke-linejoin="round"/>
<path d="M131.308 126.056L120.032 137.317L114.555 131.859" stroke="#2088FF" stroke-width="7.34783" stroke-linecap="round" stroke-linejoin="round"/>
<path fill-rule="evenodd" clip-rule="evenodd" d="M189.957 109.13C202.131 109.13 212 119 212 131.174C212 143.348 202.131 153.217 189.957 153.217C177.782 153.217 167.913 143.348 167.913 131.174C167.913 119 177.782 109.13 189.957 109.13Z" stroke="#2088FF" stroke-width="7.34783" stroke-linecap="round" stroke-linejoin="round"/>
<path d="M197.438 126.056L186.162 137.317L180.686 131.859" stroke="#2088FF" stroke-width="7.34783" stroke-linecap="round" stroke-linejoin="round"/>
<path d="M65.0435 64.3532C65.0435 61.4617 68.2291 59.7035 70.6756 61.2446L89.461 73.0784C91.7583 74.5255 91.7462 77.8786 89.439 79.3093L70.6534 90.9574C68.206 92.4747 65.0435 90.7145 65.0435 87.8349V64.3532Z" stroke="#2088FF" stroke-width="7.34783" stroke-linecap="round" stroke-linejoin="round"/>
<path d="M72.3911 109.13V164.239C72.3911 178.442 84.0639 189.956 98.1085 189.956H101.782" stroke="#2088FF" stroke-width="7.34783" stroke-linecap="round" stroke-linejoin="round"/>
<path d="M101.595 134.847C103.624 134.847 105.269 133.203 105.269 131.173C105.269 129.144 103.624 127.5 101.595 127.5V134.847ZM68.7173 109.259C68.7173 123.391 80.1736 134.847 94.3054 134.847V127.5C84.2315 127.5 76.0651 119.333 76.0651 109.259H68.7173ZM94.3054 134.847H101.595V127.5H94.3054V134.847Z" fill="#2088FF"/>
<path d="M146.071 131.174H167.911" stroke="#2088FF" stroke-width="7.34783" stroke-linecap="round" stroke-linejoin="round"/>
<path fill-rule="evenodd" clip-rule="evenodd" d="M116.478 186.283C118.505 186.283 120.152 187.929 120.152 189.957C120.152 191.987 118.505 193.631 116.478 193.631C114.451 193.631 112.804 191.987 112.804 189.957C112.804 187.929 114.451 186.283 116.478 186.283Z" fill="#79B8FF"/>
<path fill-rule="evenodd" clip-rule="evenodd" d="M131.174 186.283C133.201 186.283 134.848 187.929 134.848 189.957C134.848 191.987 133.201 193.631 131.174 193.631C129.147 193.631 127.5 191.987 127.5 189.957C127.5 187.929 129.147 186.283 131.174 186.283Z" fill="#79B8FF"/>
<path d="M164.257 189.981L160.537 190.103" stroke="#79B8FF" stroke-width="7.34783" stroke-linecap="round"/>
</svg>

        </g>
         
        <g transform="translate(3000, 0)">
          <svg xmlns="http://www.w3.org/2000/svg" width="256" height="256" fill="none" viewBox="0 0 256 256"><rect width="256" height="256" fill="#E14E1D" rx="60"/><path fill="#fff" d="M48 38L56.6098 134.593H167.32L163.605 176.023L127.959 185.661L92.38 176.037L90.0012 149.435H57.9389L62.5236 200.716L127.951 218.888L193.461 200.716L202.244 102.655H85.8241L82.901 69.9448H205.041H205.139L208 38H48Z"/><path fill="#EBEBEB" d="M128 38H48L56.6098 134.593H128V102.655H85.8241L82.901 69.9448H128V38Z"/><path fill="#EBEBEB" d="M128 185.647L127.959 185.661L92.38 176.037L90.0012 149.435H57.9388L62.5236 200.716L127.951 218.888L128 218.874V185.647Z"/></svg>
        </g>
         
        <g transform="translate(3300, 0)">
          <svg xmlns="http://www.w3.org/2000/svg" width="256" height="256" fill="none" viewBox="0 0 256 256"><rect width="256" height="256" fill="#F4F2ED" rx="60"/><path fill="#4E7896" d="M101.634 182.619C101.634 182.619 93.9548 187.293 106.979 188.63C122.707 190.634 131.023 190.299 148.386 186.962C148.386 186.962 153.06 189.971 159.406 192.306C120.331 209.002 70.9089 191.304 101.634 182.619ZM96.6252 160.914C96.6252 160.914 88.2753 167.26 101.299 168.593C118.327 170.262 131.69 170.597 154.732 165.926C154.732 165.926 157.741 169.267 162.747 170.936C115.664 184.961 62.8975 172.269 96.6252 160.917V160.914ZM188.795 198.984C188.795 198.984 194.471 203.658 182.449 207.334C160.073 214.012 88.6104 216.019 68.5735 207.334C61.564 204.325 74.9197 199.982 79.2587 199.319C83.6012 198.317 85.9366 198.317 85.9366 198.317C78.2569 192.973 34.8424 209.337 63.8959 214.046C143.709 227.073 209.499 208.37 188.792 199.018L188.795 198.984ZM105.307 138.203C105.307 138.203 68.9052 146.888 92.2793 149.89C102.298 151.223 122 150.892 140.368 149.555C155.396 148.221 170.458 145.548 170.458 145.548C170.458 145.548 165.113 147.886 161.441 150.222C124.342 159.915 53.2107 155.573 73.5827 145.554C90.9526 137.204 105.307 138.203 105.307 138.203V138.203ZM170.423 174.604C207.83 155.234 190.46 136.534 178.438 138.873C175.429 139.54 174.096 140.207 174.096 140.207C174.096 140.207 175.097 138.203 177.436 137.54C201.145 129.19 219.849 162.586 169.757 175.61C169.757 175.61 170.092 175.275 170.423 174.608V174.604ZM108.979 227.364C145.046 229.703 200.147 226.03 201.484 208.995C201.484 208.995 198.817 215.673 171.764 220.683C141.042 226.359 102.968 225.692 80.5957 222.016C80.5957 222.016 85.2698 226.023 108.982 227.36L108.979 227.364Z"/><path fill="#F58219" d="M147.685 28C147.685 28 168.389 49.0388 127.983 80.7594C95.5891 106.472 120.632 121.168 127.983 137.861C108.948 120.833 95.2609 105.802 104.606 91.7762C118.331 71.0828 156.062 61.0644 147.685 28ZM137 123.842C146.683 134.862 134.333 144.881 134.333 144.881C134.333 144.881 159.044 132.195 147.692 116.494C137.338 101.466 129.324 94.1184 172.738 69.0689C172.738 69.0689 104.277 86.0968 137.007 123.835L137 123.842Z"/></svg>
        </g>
         
        <g transform="translate(3600, 0)">
          <svg width="256" height="256" viewBox="0 0 256 256" fill="none" xmlns="http://www.w3.org/2000/svg">
<rect width="256" height="256" rx="60" fill="#F0DB4F"/>
<path d="M67.3117 213.932L86.9027 202.076C90.6821 208.777 94.1202 214.447 102.367 214.447C110.272 214.447 115.256 211.355 115.256 199.327V117.529H139.314V199.667C139.314 224.584 124.708 235.926 103.398 235.926C84.1533 235.926 72.9819 225.959 67.3113 213.93" fill="#323330"/>
<path d="M152.381 211.354L171.969 200.013C177.126 208.434 183.828 214.62 195.684 214.62C205.653 214.62 212.009 209.636 212.009 202.762C212.009 194.514 205.479 191.592 194.481 186.782L188.468 184.203C171.111 176.815 159.597 167.535 159.597 147.945C159.597 129.901 173.345 116.153 194.826 116.153C210.12 116.153 221.118 121.481 229.022 135.4L210.291 147.429C206.166 140.04 201.7 137.119 194.826 137.119C187.78 137.119 183.312 141.587 183.312 147.429C183.312 154.646 187.78 157.568 198.09 162.037L204.104 164.614C224.553 173.379 236.067 182.313 236.067 202.418C236.067 224.072 219.055 235.928 196.2 235.928C173.861 235.928 159.426 225.274 152.381 211.354" fill="#323330"/>
</svg>

        </g>
         
        <g transform="translate(3900, 0)">
          <svg width="256" height="256" viewBox="0 0 256 256" fill="none" xmlns="http://www.w3.org/2000/svg">
<rect width="256" height="256" rx="60" fill="#F4F2ED"/>
<path d="M67.8948 193.68H65.7476C64.8888 202.533 63.6863 213.294 48.57 213.294H41.6131C37.5764 213.294 37.4046 212.687 37.4046 209.823V163.738C37.4046 160.787 37.4046 159.572 45.4781 159.572H48.3124V156.968C45.2204 157.229 37.4905 157.229 33.9691 157.229C30.6195 157.229 23.9202 157.229 21 156.968V159.572H22.9754C29.5888 159.572 29.7606 160.526 29.7606 163.651V209.215C29.7606 212.34 29.5888 213.294 22.9754 213.294H21V215.985H65.5759L67.8948 193.68V193.68Z" fill="black"/>
<path d="M66.4348 156.881C66.0913 155.84 65.9195 155.493 64.8029 155.493C63.6864 155.493 63.4287 155.84 63.0852 156.881L49.2572 192.291C48.656 193.767 47.6253 196.457 42.3003 196.457V198.627H55.6129V196.457C52.9504 196.457 51.3185 195.242 51.3185 193.506C51.3185 193.072 51.4044 192.899 51.5762 192.291L54.4964 184.827H71.5022L74.9377 193.68C75.1095 194.027 75.2813 194.461 75.2813 194.721C75.2813 196.457 72.0175 196.457 70.3857 196.457V198.627H87.3056V196.457H86.1032C82.0664 196.457 81.637 195.85 81.0358 194.114L66.4348 156.881V156.881ZM62.9993 163.043L70.6433 182.658H55.3553L62.9993 163.043V163.043Z" fill="black"/>
<path d="M135.231 157.489H82.9251L81.3792 176.93H83.4405C84.6429 162.956 85.9312 160.092 98.9003 160.092C100.446 160.092 102.679 160.092 103.538 160.266C105.342 160.613 105.342 161.568 105.342 163.564V209.128C105.342 212.079 105.342 213.294 96.3237 213.294H92.8881V215.985C96.4095 215.724 105.084 215.724 109.035 215.724C112.986 215.724 121.832 215.724 125.354 215.985V213.294H121.918C112.9 213.294 112.9 212.079 112.9 209.128V163.564C112.9 161.828 112.9 160.613 114.446 160.266C115.391 160.092 117.71 160.092 119.342 160.092C132.225 160.092 133.513 162.956 134.716 176.93H136.863C136.863 176.93 135.231 157.489 135.231 157.489Z" fill="black"/>
<path d="M181.267 213.207H179.12C176.972 226.486 174.997 232.822 160.31 232.822H148.973C144.936 232.822 144.764 232.214 144.764 229.35V206.264H152.408C160.74 206.264 161.684 209.042 161.684 216.419H163.832V193.506H161.684C161.684 200.883 160.74 203.574 152.408 203.574H144.764V182.831C144.764 179.967 144.936 179.36 148.973 179.36H159.967C173.107 179.36 175.341 184.133 176.715 196.197H178.862C178.862 196.197 176.457 176.756 176.457 176.756H128.36V179.36H130.335C136.949 179.36 137.12 180.314 137.12 183.439V228.743C137.12 231.867 136.949 232.822 130.335 232.822H128.36V235.512H177.66L181.267 213.207V213.207Z" fill="black"/>
<path d="M207.119 182.571L218.886 165.213C220.69 162.436 223.61 159.659 231.254 159.572V156.968H210.812V159.572C214.248 159.659 216.138 161.568 216.138 163.564C216.138 164.432 215.966 164.606 215.365 165.56L205.573 180.141C205.573 180.141 194.58 163.477 194.58 163.477C194.408 163.217 193.978 162.523 193.978 162.175C193.978 161.134 195.868 159.659 199.475 159.572V156.968C196.555 157.229 190.285 157.229 187.022 157.229C184.359 157.229 179.034 157.142 175.856 156.968V159.572H177.488C182.212 159.572 183.844 160.179 185.476 162.609L201.193 186.65L187.193 207.566C185.991 209.302 183.414 213.294 174.825 213.294V215.985H195.267V213.294C191.316 213.208 189.856 210.864 189.856 209.302C189.856 208.521 190.113 208.174 190.715 207.219L202.825 189.08L216.395 209.736C216.567 210.083 216.825 210.43 216.825 210.691C216.825 211.732 214.935 213.208 211.242 213.294V215.985C214.248 215.724 220.518 215.724 223.696 215.724C227.303 215.724 231.254 215.811 234.861 215.985V213.294H233.229C228.763 213.294 226.959 212.86 225.156 210.17L207.119 182.571V182.571Z" fill="black"/>
<path d="M66.7719 20.0002C68.2818 22.7202 69.8515 25.0409 71.4904 27.0521C70.7411 26.9428 69.9691 26.8785 69.1673 26.8869C67.5836 26.9036 65.8906 27.1665 64.0565 27.744C67.257 30.4241 69.9618 32.38 72.3477 33.8874C68.6619 32.7101 64.6927 32.5424 60.0302 34.7547C63.4359 36.8858 66.2945 38.426 68.7965 39.5765C64.896 38.8576 60.8514 39.1851 56.4371 42.0958C59.3516 43.3945 61.872 44.3696 64.1086 45.1107C60.4373 45.239 56.8035 46.3729 53.247 49.7466C56.332 50.512 58.9752 51.0194 61.3003 51.3573C58.4546 51.9323 55.6631 53.2973 52.9577 56.0242C55.0538 56.4771 56.9406 56.8189 58.6674 57.0774C56.5416 58.1049 54.5288 59.6973 52.6892 62.1366C55.1046 62.3242 57.2416 62.4075 59.163 62.4154C56.8382 63.4911 54.662 65.1907 52.7202 67.9187C56.1701 68.0911 59.0519 68.0743 61.5378 67.9289C58.8059 69.0458 56.288 70.933 54.1347 74.1963C58.4223 74.2589 61.818 74.053 64.6659 73.7007C61.1311 74.6604 57.8591 76.5901 55.167 80.6701C58.6305 80.7206 61.5214 80.5946 64.0052 80.3603C60.9687 82.015 58.3608 84.5249 56.6435 88.8064C59.7696 88.2144 62.3895 87.5806 64.6455 86.917C62.2956 88.6271 60.3204 91.029 58.9976 94.6401C61.0948 94.1765 62.956 93.6911 64.6351 93.2049C63.1278 95.0273 61.9659 97.3083 61.3105 100.298C63.5878 99.4595 65.5576 98.6467 67.3093 97.8511C65.6451 99.7986 64.374 102.264 63.7472 105.554C66.9534 104.272 69.5613 103.047 71.7594 101.878C69.7444 104.032 68.2452 106.803 67.6501 110.665C71.5537 108.941 74.5486 107.345 76.9838 105.843C74.1871 108.187 72.0366 111.303 71.2947 116.116C76.3954 113.865 79.9551 111.822 82.7246 109.932C81.5352 112.337 80.9048 115.154 81.2068 118.666C86.1365 114.884 89.2593 111.823 91.5831 109.126C91.4263 110.868 91.55 112.762 92.0684 114.857C95.6074 108.776 99.1244 107.001 102.764 104.972C96.9668 107.891 97.8262 110.088 97.8262 112.637C102.249 107.98 108.416 103.041 110.303 99.9474C107.78 103.735 106.754 107.322 106.09 110.489C93.1853 117.314 85.328 119.097 76.5191 121.825C79.9359 123.079 83.5976 124.306 82.0843 126.048L78.0472 130.075C80.6276 129.273 83.2587 128.128 85.5432 129.693C85.319 131.81 82.6437 132.878 80.3599 134.112C84.3805 132.663 85.25 132.998 86.3071 133.338C86.8353 135.874 85.0025 137.238 83.8085 138.913C93.9358 131.213 107.15 125.13 116.456 122.589C129.546 118.181 146.424 113.599 151.014 102.425L155.619 83.9945C161 78.1704 165.95 72.1307 168.298 64.7903C183.283 61.8913 195.399 62.9379 208.039 63.2622C206.887 63.0702 169.445 56.7264 169.445 56.7264C158.502 41.7548 142.191 51.9313 136.817 66.7209C135.461 70.4538 127.723 70.455 125.481 66.7107C116.614 47.6211 89.6869 27.4384 66.7726 20.0001V20L66.7719 20.0002Z" fill="#008080"/>
<path d="M155.177 59.0692L155.079 59.2267C154.691 59.9501 154.034 60.4439 153.11 60.7426C152.187 61.0412 151.004 61.1369 149.626 61.0772L148.76 61.0378L149.39 61.6482C149.709 61.9558 149.799 62.2013 149.803 62.4159C149.808 62.6305 149.715 62.8623 149.508 63.1246C149.093 63.6494 148.269 64.2191 147.5 64.798L147.244 64.9751L147.421 65.2311C148.062 66.2151 148.356 66.9726 148.425 67.554C148.494 68.1355 148.359 68.5526 148.09 68.9123C147.553 69.6321 146.375 70.1198 145.314 70.7235L145.118 70.8219L145.157 71.0582C145.248 71.6116 145.099 72.0639 144.704 72.5149C144.309 72.9658 143.645 73.3959 142.755 73.7749L142.519 73.8733L142.558 74.1293C142.736 75.3144 143.092 76.3457 143.838 77.0034C144.52 77.6052 145.553 77.7638 146.87 77.4955C147.099 78.7589 147.428 79.9078 148.189 80.6651C148.959 81.4326 150.18 81.6596 151.811 81.236C152.178 82.1208 152.715 82.7513 153.327 83.1652C153.999 83.6197 154.878 83.803 155.6 84.0275L156.028 83.567C155.311 83.3443 154.252 83 153.681 82.614C153.11 82.2281 152.646 81.6986 152.323 80.7833L152.224 80.4683L151.909 80.5667C150.232 81.0822 149.302 80.8501 148.661 80.2123C148.021 79.5746 147.661 78.4217 147.441 77.0822L147.382 76.7278L147.027 76.8262C145.645 77.187 144.828 77.0025 144.271 76.5112C143.751 76.0524 143.443 75.2389 143.267 74.2276C144.068 73.8573 144.755 73.4522 145.196 72.9481C145.628 72.4555 145.814 71.8475 145.787 71.2157C146.764 70.6781 147.943 70.2162 148.622 69.3061C148.977 68.8303 149.161 68.2049 149.075 67.4753C148.996 66.8115 148.671 66.0446 148.11 65.1326C148.799 64.6254 149.546 64.117 150.02 63.5183C150.283 63.1855 150.481 62.8171 150.472 62.3963C150.468 62.1642 150.245 61.9527 150.118 61.7269C151.316 61.7426 152.407 61.6637 153.307 61.3725C154.256 61.0658 155.001 60.5068 155.492 59.7386C156.91 59.7457 158.378 60.0575 159.863 60.2504C161.388 60.4487 162.94 60.5019 164.41 59.8567L164.135 59.2465C162.834 59.8173 161.445 59.7936 159.961 59.6008C158.477 59.408 156.931 59.058 155.374 59.0693H155.177L155.177 59.0692Z" fill="white"/>
<path d="M160.686 58.8242C160.686 60.3691 159.434 61.6215 157.889 61.6215C156.344 61.6215 155.092 60.3691 155.092 58.8242C155.092 57.2794 156.344 56.0269 157.889 56.0269C159.434 56.0269 160.686 57.2793 160.686 58.8242Z" fill="white" stroke="white" stroke-width="0.660673"/>
<path d="M169.041 56.2C166.529 59.467 165.898 58.6232 164.369 59.1709L164.113 59.2693L164.153 59.5449C164.741 62.8263 166.686 63.8689 168.204 65.0616L168.288 64.7962L168.692 64.7193C167.171 63.5236 165.506 62.5109 164.901 59.7221C166.014 59.4587 167.077 59.7955 169.448 56.7101L169.041 56.2001V56.2Z" fill="white"/>
<path d="M72.3442 33.8794C77.0896 36.8218 84.8996 39.856 89.9155 43.0258C92.6748 44.7827 95.1532 46.5334 97.0813 48.0457C99.0094 49.5582 100.435 51.1207 100.96 51.6287C101.484 52.1367 101.84 51.8966 101.491 51.2349C101.142 50.5733 99.4247 49.0436 97.4751 47.5142C95.5255 45.9849 93.0455 44.2419 90.2698 42.4745C84.7184 38.9398 78.2029 35.7793 72.3445 33.879L72.3442 33.8794Z" fill="white"/>
<path d="M71.4905 27.0505C73.4798 27.5099 76.4158 29.2065 79.6806 31.0217C82.9455 32.8369 86.5038 35.0707 89.7597 37.2426C93.0158 39.4145 95.5263 41.3154 97.5332 42.8467C99.439 44.4776 100.38 45.5337 100.745 45.5305C100.795 45.5405 100.844 45.5413 100.922 45.5305C101 45.5197 101.131 45.4596 101.197 45.3336C101.264 45.2078 101.238 45.102 101.217 45.0384C101.196 44.9747 101.185 44.941 101.158 44.9005C101.05 44.7388 100.886 44.5874 100.646 44.369C100.167 43.9323 99.3739 43.2901 98.3626 42.5185C96.3399 40.9752 93.4007 38.8705 90.1338 36.6913C86.8668 34.5121 83.2834 32.2591 79.9955 30.4311C78.8267 29.998 73.095 26.9668 71.4901 27.0504H71.49L71.4905 27.0505Z" fill="white"/>
<path d="M68.7717 39.5781C74.8623 42.0641 83.5268 44.9843 89.3101 48.6194C92.4175 50.5927 95.124 52.5583 97.1452 54.171C98.1558 54.9773 98.9999 55.7021 99.6257 56.2774C100.252 56.8528 100.604 57.3751 100.807 57.5177C101.23 57.8161 101.555 57.6178 101.358 57.1436C101.21 56.7855 100.72 56.3748 100.078 55.7852C99.4372 55.1957 98.5789 54.4732 97.5586 53.6591C95.518 52.031 92.7937 50.0355 89.6644 48.0484C83.406 44.0743 75.9242 40.5803 68.772 39.5777L68.7717 39.5781Z" fill="white"/>
<path d="M64.0847 45.103C68.8314 45.1061 78.6366 49.4509 82.7696 51.6284C89.4708 55.2022 95.5645 59.7963 98.9323 63.0068C99.3057 63.3629 99.8513 63.0487 99.4245 62.5541C96.2963 58.9293 89.8355 54.6575 83.0847 51.0571C76.3339 47.4567 69.3437 45.0973 64.0845 45.1026L64.0847 45.103Z" fill="white"/>
<path d="M61.342 51.355C68.4781 52.3992 77.0321 55.2796 83.2644 58.4007C86.7423 60.1666 89.8436 62.058 92.2219 63.7357C94.5999 65.4134 96.3558 67.3023 96.7891 67.791C97.2224 68.2798 97.7385 68.3002 97.3403 67.4367C96.9421 66.5732 95.0053 64.8843 92.5959 63.1845C90.1866 61.4846 87.0651 59.5897 83.5601 57.81C76.5498 54.2506 68.5664 51.4504 61.3422 51.3549L61.342 51.355Z" fill="white"/>
<path d="M63.6973 56.6664C61.9246 56.5118 60.3289 56.8753 58.7031 57.0785C65.0438 56.4843 73.9103 59.3961 79.8208 62.1196C86.7832 65.3836 92.5643 69.8648 95.3339 72.7109C95.7674 73.1564 96.0738 72.5887 95.8457 72.2974C93.267 69.0052 87.1261 64.8048 80.0964 61.5094C74.8244 59.0378 69.0159 57.1307 63.6973 56.6666V56.6664Z" fill="white"/>
<path d="M59.1921 62.381C65.4318 62.8435 73.7859 64.3376 79.6379 67.0239C85.5234 69.7767 89.9897 73.346 92.2368 75.3712C92.5826 75.6828 93.1941 75.4621 92.7093 74.8987C90.6585 72.5159 85.8899 69.2199 79.9326 66.4337C73.9756 63.6474 66.7394 61.8629 59.1919 62.3813L59.1921 62.381Z" fill="white"/>
<path d="M64.7959 67.5738C63.4794 67.5293 62.8619 67.7756 61.5918 67.9128C65.8268 68.0994 72.5569 69.2257 76.2733 70.4874C81.0962 72.1606 85.0617 74.6811 87.3175 76.6493C87.753 77.0293 88.0777 76.5195 87.79 76.1965C85.6774 73.8258 81.3838 71.5554 76.4897 69.8574C72.8194 68.584 68.7454 67.7074 64.7959 67.5738H64.7959Z" fill="white"/>
<path d="M64.6142 73.7152C73.6673 74.3261 79.1416 75.9212 83.3378 79.6802C83.6522 79.9618 84.1486 79.5741 83.8103 79.2077C79.5041 74.5422 71.0257 73.2422 64.614 73.7153L64.6142 73.7152Z" fill="white"/>
<path d="M71.5854 79.1531C68.841 78.9323 66.5446 79.5321 64.0435 80.3649C71.3629 79.1983 74.4063 79.7577 79.9517 82.3619C80.5839 82.6588 80.5468 81.9594 80.2667 81.791C77.3208 80.0203 74.3293 79.3737 71.585 79.1531L71.5854 79.1531Z" fill="white"/>
<path d="M71.3246 84.2512C68.7298 84.4813 66.5265 85.3723 64.71 86.8497C71.9583 84.0559 73.9615 84.6118 79.5053 86.1834C80.2344 86.3901 80.0078 85.6878 79.7218 85.5731C76.4024 84.2422 73.9197 84.0211 71.3247 84.2511L71.3246 84.2512Z" fill="white"/>
<path d="M85.686 88.7405C81.8187 88.3224 77.4619 88.7914 73.638 89.4886C69.8143 90.1859 66.5257 91.6025 64.6694 93.1124C71.027 90.4274 72.1856 90.4331 73.7566 90.1383C77.5237 89.4513 81.2578 89.1835 85.6472 89.3902C86.0453 89.409 86.0249 88.7771 85.6866 88.7405H85.686Z" fill="white"/>
<path d="M87.9307 91.8706C83.7397 91.7123 79.411 92.7494 75.6661 93.8196C71.9216 94.8898 69.1422 96.3501 67.3093 97.8408C71.0179 96.0569 74.469 94.8494 75.8432 94.4495C79.5354 93.3942 83.2602 92.4807 87.9702 92.5399C88.3361 92.5446 88.5726 91.8948 87.9308 91.8706L87.9307 91.8706Z" fill="white"/>
<path d="M91.3532 94.4472C87.406 95.0299 83.2675 96.1957 79.6594 97.4197C76.0516 98.6438 73.4836 100.098 71.8083 101.838C76.0996 99.3746 78.4597 98.5109 79.8561 98.0301C83.4196 96.821 86.747 95.9797 91.4709 95.0968C92.0379 94.9908 91.5826 94.4132 91.3528 94.4472H91.3532Z" fill="white"/>
<path d="M93.3607 97.7352C85.445 98.9961 80.3153 102.411 77.0549 105.798C82.1078 101.991 85.6228 99.9451 93.4983 98.3846C93.9967 98.2858 93.8462 97.6575 93.3605 97.7349L93.3607 97.7352Z" fill="white"/>
<path d="M97.2179 100.628C89.2563 101.854 84.6649 106.694 82.7529 109.889C87.7902 104.857 91.7105 102.118 97.3554 101.278C97.9267 101.193 97.7809 100.541 97.2176 100.628L97.2179 100.628Z" fill="white"/>
<path d="M99.6206 103.149C98.3789 103.304 96.6892 104.184 95.0928 105.197C93.4963 106.21 92.2918 107.442 91.5735 109.03C93.4965 107.045 94.2663 106.508 95.4471 105.748C96.9798 104.775 98.5244 104.163 99.7781 103.799C100.366 103.628 99.9216 103.112 99.6206 103.149H99.6206Z" fill="white"/>
<path d="M160.686 58.8242C160.686 60.3691 159.434 61.6215 157.889 61.6215C156.344 61.6215 155.092 60.3691 155.092 58.8242C155.092 57.2794 156.344 56.0269 157.889 56.0269C159.434 56.0269 160.686 57.2793 160.686 58.8242Z" fill="white" stroke="white" stroke-width="0.660673"/>
<path d="M160.686 58.8242C160.686 60.3691 159.434 61.6215 157.889 61.6215C156.344 61.6215 155.092 60.3691 155.092 58.8242C155.092 57.2794 156.344 56.0269 157.889 56.0269C159.434 56.0269 160.686 57.2793 160.686 58.8242Z" fill="#37C871" stroke="white" stroke-width="0.660673"/>
</svg>

        </g>
         
        <g transform="translate(4200, 0)">
          <svg xmlns="http://www.w3.org/2000/svg" width="256" height="256" fill="none" viewBox="0 0 256 256"><rect width="256" height="256" fill="#F4F2ED" rx="60"/><path fill="#ECEFF1" d="M85.9493 199.926L110.48 213.546H147.576L182.278 187.491L197.834 146.632L161.935 103.405L151.764 79.1268L102.104 80.9032L102.702 94.5228L93.1291 112.287L78.1713 141.303L75.1797 165.581L85.9493 199.926Z"/><path fill="#263238" d="M187.064 114.656C177.491 101.036 169.713 92.7463 165.525 75.5738C161.337 58.4013 166.722 63.1386 163.132 48.3347C161.337 40.6367 158.345 35.3073 155.354 31.1622C151.764 27.0171 147.576 24.6485 145.182 24.0563C139.798 21.0956 127.233 16.3583 111.677 24.6485C95.5223 32.9387 97.3172 50.7033 100.309 86.8248C100.309 89.1934 99.7105 92.1542 98.5139 94.5228C96.1206 99.8522 91.9324 104.589 88.3425 108.735C84.1543 114.656 79.9661 120.578 76.9746 127.091C69.7948 140.711 63.2134 157.883 65.0083 164.397C67.9999 163.805 105.694 220.652 105.694 221.836C108.087 221.244 118.258 221.244 127.233 221.244C139.798 220.652 146.977 220.06 157.149 222.428C157.149 220.652 156.55 218.875 156.55 217.099C156.55 213.546 157.149 210.585 157.747 206.44C158.345 203.479 158.944 200.519 159.542 196.966C153.559 202.295 142.789 208.217 132.618 209.993C123.643 211.769 108.685 208.809 101.505 199.926C102.104 199.926 103.3 199.926 103.899 199.334C105.694 198.742 107.489 198.15 108.087 196.966C109.882 194.005 108.685 191.044 107.489 189.268C106.292 187.491 97.3173 180.977 93.1291 177.425C88.9409 173.872 86.5476 172.095 84.1544 169.727C84.1544 169.727 80.5645 166.174 79.3678 164.989C78.1712 163.805 77.5729 162.621 76.9746 162.028C75.778 159.068 75.1796 155.515 75.778 150.778C76.3763 144.264 78.7695 138.934 81.7611 133.013C82.9577 130.644 85.9493 125.907 85.9493 125.907C85.9493 125.907 75.778 150.778 81.1628 158.476C81.1628 158.476 81.7611 150.778 84.1544 143.08C85.9493 137.75 88.9409 130.052 92.5307 125.907C96.1206 121.762 105.095 106.366 105.694 96.8914C105.694 92.7463 106.292 88.6012 106.292 85.6405C103.899 83.2718 145.781 77.3503 148.174 83.864C148.772 86.2326 157.149 107.55 161.935 118.801C164.328 124.131 167.32 128.868 169.115 134.789C170.91 141.303 172.106 150.185 172.106 159.068C172.106 160.844 172.106 163.805 171.508 166.766C172.705 166.766 196.039 141.895 168.517 121.17C168.517 121.17 185.269 128.868 185.868 144.264C186.466 156.699 181.081 166.766 179.885 168.542C180.483 168.542 192.449 173.872 193.047 173.872C195.441 173.872 200.227 172.095 200.227 172.095C200.826 170.319 202.62 165.581 202.62 163.805C206.809 150.185 196.637 128.276 187.064 114.656V114.656Z"/><path fill="#ECEFF1" d="M111.078 75.5738C115.374 75.5738 118.856 70.2714 118.856 63.7307C118.856 57.1899 115.374 51.8876 111.078 51.8876C106.783 51.8876 103.3 57.1899 103.3 63.7307C103.3 70.2714 106.783 75.5738 111.078 75.5738Z"/><path fill="#ECEFF1" d="M138.002 76.7581C143.62 76.7581 148.174 70.6604 148.174 63.1386C148.174 55.6167 143.62 49.519 138.002 49.519C132.385 49.519 127.831 55.6167 127.831 63.1386C127.831 70.6604 132.385 76.7581 138.002 76.7581Z"/><path fill="#212121" d="M115.424 64.5411C114.927 60.6476 112.663 57.7241 110.368 58.0111C108.074 58.2982 106.616 61.6872 107.114 65.5807C107.611 69.4741 109.874 72.3977 112.169 72.1106C114.464 71.8235 115.921 68.4345 115.424 64.5411Z"/><path fill="#212121" d="M137.405 73.2052C140.709 73.2052 143.388 69.7587 143.388 65.5072C143.388 61.2557 140.709 57.8091 137.405 57.8091C134.1 57.8091 131.421 61.2557 131.421 65.5072C131.421 69.7587 134.1 73.2052 137.405 73.2052Z"/><path fill="#FFC107" d="M216.98 195.781C214.587 194.597 210.398 192.82 206.808 187.491C205.014 184.53 205.612 176.24 202.62 172.687C200.825 170.319 198.432 171.503 197.834 171.503C192.449 172.687 179.884 180.977 171.508 171.503C170.311 170.319 168.516 168.542 165.525 168.542C162.533 168.542 161.337 169.726 160.14 172.095C158.943 174.464 158.943 176.24 158.943 182.162C158.943 186.899 158.943 192.228 158.345 196.373C157.148 206.44 155.354 212.362 155.354 218.283C155.354 224.797 157.148 228.942 159.542 230.718C161.337 232.495 164.328 233.679 170.91 233.679C177.491 233.679 181.679 231.311 185.868 227.165C188.859 224.205 191.252 223.02 199.629 217.099C206.21 212.954 216.382 207.624 218.176 205.848C219.373 204.664 221.168 204.071 221.168 200.518C221.168 197.558 218.775 196.373 216.98 195.781V195.781Z"/><path fill="#FFC107" d="M96.7189 197.558C90.7357 188.083 90.1374 186.307 85.9492 180.385C82.3593 174.464 74.5813 163.213 69.7948 163.213C66.2049 163.213 64.4099 164.989 62.0167 167.358C59.6234 169.726 57.2302 175.056 53.042 178.017C49.4521 180.977 39.2808 180.385 36.8875 183.938C34.4942 187.491 39.2808 192.821 39.2808 201.703C39.2808 205.256 36.2892 207.624 35.6909 209.993C35.0926 212.954 34.4942 214.73 35.6909 217.099C38.0841 220.652 41.0757 221.836 61.4184 225.981C72.188 228.35 82.3593 234.271 88.9408 234.864C95.5222 235.456 106.89 234.864 106.89 218.875C107.489 209.401 102.104 207.032 96.7189 197.558Z"/><path fill="#FFC107" d="M108.087 90.3777C104.497 88.0091 101.505 85.6404 101.505 82.0875C101.505 78.5346 103.899 77.3503 107.489 74.3895C108.087 73.7973 114.668 67.8758 121.25 67.8758C127.831 67.8758 135.609 72.0209 138.601 73.2052C143.986 74.3895 149.37 75.5738 148.772 79.7189C148.174 85.6404 147.576 86.8248 141.592 89.7855C137.404 90.9698 129.626 97.4835 124.241 97.4835C121.848 97.4835 118.258 97.4835 115.865 96.8914C114.07 96.2992 111.078 93.3385 108.087 90.3777V90.3777Z"/><path fill="#634703" d="M106.89 85.6405C108.087 86.8248 109.882 88.0091 111.677 88.6012C112.873 89.1934 114.668 89.7856 114.668 89.7856C117.062 89.7856 118.857 89.7856 120.053 89.7856C123.045 89.7856 127.233 88.6013 131.421 86.2326C135.609 84.4562 136.208 83.2718 139.199 82.0875C142.191 80.3111 145.182 78.5346 143.986 77.9425C142.789 77.3503 141.592 77.9425 137.404 80.3111C133.814 82.6797 130.823 83.864 127.233 85.6405C125.438 86.2326 123.045 87.4169 121.25 87.4169C119.455 87.4169 117.66 87.4169 115.865 87.4169C114.07 87.4169 112.873 86.8248 111.078 86.2326C109.882 85.6405 109.283 85.0483 108.685 85.0483C107.489 84.4562 105.095 82.0875 103.899 81.4954C103.899 81.4954 102.702 81.4954 103.3 82.0875C105.095 83.864 105.694 84.4562 106.89 85.6405Z"/><path fill="#634703" d="M124.84 72.613C125.438 73.7973 126.635 73.7973 127.233 74.3895C127.831 74.9816 128.43 74.9816 128.43 74.9816C129.028 74.3895 128.43 73.2052 127.831 73.2052C127.831 72.0209 124.84 72.0209 124.84 72.613V72.613Z"/><path fill="#634703" d="M115.267 73.7973C115.267 74.3895 116.463 74.9816 116.463 74.3895C117.062 73.7973 117.66 73.2052 118.258 73.2052C119.455 72.613 118.856 72.0209 117.062 72.0209C115.865 72.613 115.865 73.2052 115.267 73.7973V73.7973Z"/><path fill="#455A64" d="M173.303 178.609C173.303 179.201 173.303 179.793 173.303 180.385C174.5 182.754 177.491 183.346 179.884 183.346C183.474 183.346 187.064 180.977 188.859 178.609C188.859 178.017 189.457 177.424 190.056 176.832C191.252 175.056 191.851 173.872 192.449 173.279C192.449 173.279 191.851 172.687 191.851 172.095C191.252 170.911 189.457 169.726 187.064 169.134C185.269 168.542 182.278 167.95 181.081 167.95C175.696 167.358 172.705 169.134 170.91 170.911C170.91 170.911 171.508 170.911 171.508 171.503C172.705 172.687 173.303 173.872 173.303 175.648C173.901 176.832 173.303 177.424 173.303 178.609V178.609Z"/></svg>
        </g>
         
        <g transform="translate(0, 300)">
          <svg xmlns="http://www.w3.org/2000/svg" width="256" height="256" fill="none" viewBox="0 0 256 256"><rect width="256" height="256" fill="#F4F2ED" rx="60"/><path stroke="#000" stroke-width="10" d="M217 69H39C33.4772 69 29 73.4772 29 79V177C29 182.523 33.4772 187 39 187H217C222.523 187 227 182.523 227 177V79C227 73.4772 222.523 69 217 69Z"/><path fill="#000" d="M54 162V94H74L94 119L114 94H134V162H114V123L94 148L74 123V162H54ZM179 162L149 129H169V94H189V129H209L179 162Z"/></svg>
        </g>
         
        <g transform="translate(300, 300)">
          <svg width="256" height="256" viewBox="0 0 256 256" fill="none" xmlns="http://www.w3.org/2000/svg">
<rect width="256" height="256" rx="60" fill="#F4F4ED"/>
<path d="M33 133.187L86.7974 111.452C92.2581 104.236 98.4069 97.5671 105.157 91.5398C109.612 89.1774 117.982 90.4598 133.305 71.4249C148.155 52.8625 152.88 37 159.832 37C170.835 37 178.935 60.7599 191.22 96.7373C199.979 124.218 210.254 151.192 221.999 177.535C209.175 165.587 198.24 152.695 185.752 153.032C174.142 153.302 161.25 167.072 147.142 184.757C135.937 198.932 121.087 208.652 115.282 208.45C115.282 208.45 100.297 166.06 87.7423 159.175C85.1376 158.111 82.318 157.678 79.514 157.913C76.7101 158.147 74.0016 159.042 71.6099 160.525L33 133.12V133.187Z" fill="#4499DD"/>
<path d="M153.151 41.8613C148.629 47.9363 143.161 59.0738 133.306 71.4262C117.984 90.4612 109.681 89.1787 105.159 91.5412C98.3761 97.5356 92.2242 104.208 86.7988 111.454L109.074 127.721C127.974 101.936 138.099 73.9912 145.996 55.9013C147.974 51.0246 150.368 46.3272 153.151 41.8613V41.8613Z" fill="url(#paint0_linear_601_135)"/>
<path d="M159.9 37C145.185 37 135.128 114.49 80.7905 157.757C96.0455 155.26 109.275 193.127 115.35 208.45C142.35 203.86 163.95 152.222 185.753 153.032C198.24 153.505 209.175 165.587 222 177.535C192.705 115.975 179.003 37 159.9 37Z" fill="url(#paint1_linear_601_135)"/>
<defs>
<linearGradient id="paint0_linear_601_135" x1="132.921" y1="118.467" x2="120.839" y2="79.452" gradientUnits="userSpaceOnUse">
<stop stop-color="#551122"/>
<stop offset="0.23" stop-color="#552233"/>
<stop offset="0.36" stop-color="#553344"/>
<stop offset="0.51" stop-color="#664455"/>
<stop offset="0.66" stop-color="#556688"/>
<stop offset="0.84" stop-color="#2299DD"/>
</linearGradient>
<linearGradient id="paint1_linear_601_135" x1="220.043" y1="142.86" x2="98.543" y2="113.025" gradientUnits="userSpaceOnUse">
<stop offset="0.081" stop-color="#CC3333"/>
<stop offset="0.189" stop-color="#DE5239"/>
<stop offset="0.313" stop-color="#F06E3E"/>
<stop offset="0.421" stop-color="#FA8042"/>
<stop offset="0.5" stop-color="#FE8643"/>
<stop offset="0.58" stop-color="#FA7F42"/>
<stop offset="0.696" stop-color="#EF6C3E"/>
<stop offset="0.833" stop-color="#DC4C37"/>
<stop offset="0.916" stop-color="#CF3633"/>
</linearGradient>
</defs>
</svg>

        </g>
         
        <g transform="translate(600, 300)">
          <svg width="256" height="256" viewBox="0 0 256 256" fill="none" xmlns="http://www.w3.org/2000/svg">
<g clip-path="url(#clip0_33_578)">
<path d="M196 0H60C26.8629 0 0 26.8629 0 60V196C0 229.137 26.8629 256 60 256H196C229.137 256 256 229.137 256 196V60C256 26.8629 229.137 0 196 0Z" fill="#F4F2ED"/>
<g clip-path="url(#clip1_33_578)">
<path d="M23 88H233V156.571H128V168H81.3333V156.571H23V88ZM34.6667 145.143H58V110.857H69.6667V145.143H81.3333V99.4286H34.6667V145.143ZM93 99.4286V156.571H116.333V145.143H139.667V99.4286H93ZM116.333 110.857H128V133.714H116.333V110.857ZM151.333 99.4286V145.143H174.667V110.857H186.333V145.143H198V110.857H209.667V145.143H221.333V99.4286H151.333Z" fill="#CB3837"/>
<path d="M34.6667 145.143H58V110.857H69.6667V145.143H81.3334V99.4286H34.6667V145.143Z" fill="white"/>
<path d="M93 99.4286V156.571H116.333V145.143H139.667V99.4286H93ZM128 133.714H116.333V110.857H128V133.714Z" fill="white"/>
<path d="M151.333 99.4286V145.143H174.667V110.857H186.333V145.143H198V110.857H209.667V145.143H221.333V99.4286H151.333Z" fill="white"/>
</g>
</g>
<defs>
<clipPath id="clip0_33_578">
<rect width="256" height="256" fill="white"/>
</clipPath>
<clipPath id="clip1_33_578">
<rect width="210" height="80" fill="white" transform="translate(23 88)"/>
</clipPath>
</defs>
</svg>

        </g>
         
        <g transform="translate(900, 300)">
          <svg width="256" height="256" viewBox="0 0 256 256" fill="none" xmlns="http://www.w3.org/2000/svg">
<rect width="256" height="256" rx="60" fill="#F4F2ED"/>
<path fill-rule="evenodd" clip-rule="evenodd" d="M36.4065 203.248C35.1443 203.286 33.8902 203.033 32.7411 202.51C31.5921 201.986 30.5788 201.205 29.7794 200.227C28.9801 199.169 28.4302 197.943 28.1705 196.643C27.9108 195.342 27.9482 193.999 28.2797 192.715L58.2516 61.7869C58.9172 59.073 60.4491 56.6499 62.6152 54.8845C64.7813 53.1191 67.4636 52.1077 70.2561 52.0034H219.594C220.856 51.9671 222.11 52.2206 223.258 52.7442C224.407 53.2679 225.421 54.0478 226.221 55.0242C227.02 56.083 227.57 57.3084 227.829 58.6091C228.089 59.9098 228.052 61.2524 227.721 62.5368L197.728 193.472C197.062 196.186 195.53 198.609 193.364 200.374C191.198 202.14 188.516 203.151 185.723 203.255H36.4065V203.248Z" fill="url(#paint0_linear_258_51)"/>
<path fill-rule="evenodd" clip-rule="evenodd" d="M70.2557 53.6861H219.594C220.64 53.6433 221.681 53.853 222.628 54.2974C223.576 54.7418 224.403 55.4078 225.039 56.2393C225.675 57.0707 226.101 58.043 226.282 59.0741C226.463 60.1051 226.393 61.1645 226.078 62.1628L196.085 193.091C195.494 195.427 194.168 197.512 192.302 199.039C190.437 200.565 188.13 201.451 185.723 201.567H36.4062C35.3602 201.61 34.3194 201.401 33.3716 200.956C32.4239 200.512 31.597 199.846 30.961 199.014C30.325 198.183 29.8986 197.21 29.7177 196.179C29.5368 195.148 29.6069 194.089 29.9219 193.091L59.9152 62.1628C60.504 59.8289 61.8265 57.7457 63.688 56.2197C65.5495 54.6938 67.8517 53.8057 70.2557 53.6861V53.6861Z" fill="url(#paint1_linear_258_51)"/>
<path fill-rule="evenodd" clip-rule="evenodd" d="M128.286 167.219H164.606C166.663 167.306 168.607 168.185 170.032 169.671C171.457 171.158 172.253 173.137 172.253 175.196C172.253 177.255 171.457 179.234 170.032 180.721C168.607 182.207 166.663 183.086 164.606 183.173H128.286C126.229 183.086 124.285 182.207 122.86 180.721C121.435 179.234 120.639 177.255 120.639 175.196C120.639 173.137 121.435 171.158 122.86 169.671C124.285 168.185 126.229 167.306 128.286 167.219V167.219Z" fill="#2C5591"/>
<path fill-rule="evenodd" clip-rule="evenodd" d="M151.846 131.756C150.806 133.505 149.358 134.975 147.625 136.041L80.2186 184.423C78.3415 185.644 76.0674 186.098 73.8654 185.691C71.6634 185.284 69.7015 184.048 68.3843 182.237C67.0671 180.426 66.4952 178.179 66.7864 175.959C67.0777 173.739 68.2099 171.715 69.9495 170.305L130.736 126.286V125.386L92.5445 84.7812C91.1206 83.0683 90.4045 80.8765 90.5422 78.6533C90.6799 76.4302 91.6611 74.3435 93.2855 72.8194C94.9098 71.2953 97.0547 70.4489 99.2821 70.4529C101.51 70.4569 103.651 71.3111 105.27 72.841L151.103 121.594C152.334 122.967 153.076 124.709 153.21 126.549C153.344 128.388 152.864 130.219 151.846 131.756Z" fill="#2C5591"/>
<path fill-rule="evenodd" clip-rule="evenodd" d="M150.138 130.071C149.103 131.821 147.657 133.291 145.925 134.356L78.54 182.745C76.6623 183.94 74.3996 184.375 72.2127 183.96C70.0258 183.546 68.0791 182.313 66.7692 180.513C65.4593 178.714 64.8847 176.482 65.1624 174.274C65.44 172.065 66.5491 170.046 68.2637 168.626L129.057 124.608V123.701L90.8658 83.0741C89.4286 81.3622 88.7018 79.1648 88.8348 76.9335C88.9679 74.7023 89.9507 72.6067 91.5811 71.0778C93.2116 69.5488 95.3659 68.7025 97.6011 68.713C99.8363 68.7234 101.983 69.5898 103.599 71.134L149.424 119.887C150.661 121.262 151.403 123.011 151.532 124.856C151.662 126.701 151.171 128.537 150.138 130.071V130.071Z" fill="white"/>
<path fill-rule="evenodd" clip-rule="evenodd" d="M127.287 166.278H163.607C165.613 166.278 167.536 167.075 168.955 168.493C170.373 169.911 171.17 171.835 171.17 173.84C171.17 175.846 170.373 177.77 168.955 179.188C167.536 180.606 165.613 181.403 163.607 181.403H127.287C125.281 181.403 123.357 180.606 121.939 179.188C120.521 177.77 119.724 175.846 119.724 173.84C119.724 171.835 120.521 169.911 121.939 168.493C123.357 167.075 125.281 166.278 127.287 166.278V166.278Z" fill="white"/>
<defs>
<linearGradient id="paint0_linear_258_51" x1="180.31" y1="174.355" x2="65.5857" y2="71.8775" gradientUnits="userSpaceOnUse">
<stop stop-color="#5391FE"/>
<stop offset="1" stop-color="#3E6DBF"/>
</linearGradient>
<linearGradient id="paint1_linear_258_51" x1="64.4427" y1="70.5109" x2="177.996" y2="172.56" gradientUnits="userSpaceOnUse">
<stop stop-color="#5391FE"/>
<stop offset="1" stop-color="#3E6DBF"/>
</linearGradient>
</defs>
</svg>

        </g>
         
        <g transform="translate(1200, 300)">
          <svg xmlns="http://www.w3.org/2000/svg" width="256" height="256" fill="none" viewBox="0 0 256 256"><rect width="256" height="256" fill="#F4F2ED" rx="60"/><path fill="url(#paint0_linear_2_56)" d="M127.279 29C76.5066 29 79.6772 51.018 79.6772 51.018L79.7338 73.8284H128.185V80.6772H60.4893C60.4893 80.6772 28 76.9926 28 128.222C28 179.452 56.3573 177.636 56.3573 177.636H73.2812V153.863C73.2812 153.863 72.369 125.506 101.186 125.506H149.24C149.24 125.506 176.239 125.942 176.239 99.4123V55.5461C176.239 55.5461 180.338 29 127.279 29ZM100.563 44.339C105.384 44.339 109.28 48.2351 109.28 53.0556C109.28 57.8761 105.384 61.7723 100.563 61.7723C95.7426 61.7723 91.8465 57.8761 91.8465 53.0556C91.8465 48.2351 95.7426 44.339 100.563 44.339Z"/><path fill="url(#paint1_linear_2_56)" d="M128.721 227.958C179.493 227.958 176.323 205.941 176.323 205.941L176.266 183.13H127.815V176.281H195.511C195.511 176.281 228 179.966 228 128.736C228 77.5062 199.643 79.323 199.643 79.323H182.719V103.096C182.719 103.096 183.631 131.453 154.814 131.453H106.76C106.76 131.453 79.7607 131.016 79.7607 157.546V201.412C79.7607 201.412 75.6615 227.958 128.721 227.958ZM155.437 212.619C150.616 212.619 146.72 208.723 146.72 203.903C146.72 199.082 150.616 195.186 155.437 195.186C160.257 195.186 164.154 199.082 164.154 203.903C164.154 208.723 160.257 212.619 155.437 212.619Z"/><defs><linearGradient id="paint0_linear_2_56" x1="47.22" x2="146.333" y1="46.896" y2="145.02" gradientUnits="userSpaceOnUse"><stop stop-color="#387EB8"/><stop offset="1" stop-color="#366994"/></linearGradient><linearGradient id="paint1_linear_2_56" x1="108.056" x2="214.492" y1="109.905" y2="210.522" gradientUnits="userSpaceOnUse"><stop stop-color="#FFE052"/><stop offset="1" stop-color="#FFC331"/></linearGradient></defs></svg>
        </g>
         
        <g transform="translate(1500, 300)">
          <svg xmlns="http://www.w3.org/2000/svg" width="256" height="256" fill="none" viewBox="0 0 256 256"><rect width="256" height="256" fill="#F4F2ED" rx="60"/><path fill="#36C" d="M43.9346 127.954C43.9029 139.053 45.4178 150.108 48.4411 160.84C51.4821 171.299 55.9591 181.345 61.7603 190.728C62.2355 191.516 62.5735 192.37 62.7617 193.258C62.9443 193.902 62.9443 194.58 62.7617 195.225C62.5533 195.762 62.2098 196.244 61.7603 196.631L60.3583 197.661L52.0463 202.346C47.8329 196.376 44.1166 190.111 40.9303 183.607C37.9404 177.552 35.4625 171.287 33.5196 164.869C31.6028 158.734 30.1966 152.469 29.3135 146.13C27.5622 133.253 27.5622 120.219 29.3135 107.342C30.1966 101.003 31.6028 94.7384 33.5196 88.6032C35.471 82.188 37.9486 75.9232 40.9303 69.8647C44.1084 64.0128 47.7225 58.3773 51.7459 53L60.0578 57.7783L61.4599 58.8089C61.9036 59.2 62.2462 59.6807 62.4613 60.2143C62.6439 60.8591 62.6439 61.5371 62.4613 62.1819C62.2699 63.0686 61.932 63.9221 61.4599 64.7116C49.8426 84.0092 43.8023 105.806 43.9346 127.954V127.954ZM77.7834 160.84C77.7569 158.947 78.1313 157.069 78.885 155.312C79.6023 153.641 80.6562 152.114 81.9895 150.815C84.1089 148.829 86.8154 147.482 89.7604 146.947C92.7054 146.413 95.7539 146.716 98.5133 147.817C102.121 149.25 104.993 151.937 106.525 155.312C107.329 157.058 107.738 158.94 107.727 160.84C107.741 162.741 107.332 164.623 106.525 166.368C105.765 168.04 104.678 169.566 103.32 170.865C101.947 172.154 100.313 173.173 98.5133 173.863C94.7241 175.301 90.4854 175.301 86.6963 173.863C84.9246 173.176 83.3227 172.155 81.9895 170.865C80.6183 169.535 79.541 167.965 78.8193 166.245C78.0975 164.524 77.7455 162.688 77.7834 160.84V160.84ZM185.939 116.617L180.532 125.424L163.006 116.055L159.601 113.9C158.586 113.207 157.676 112.387 156.897 111.464C157.762 113.746 158.103 116.172 157.899 118.585V137.323H147.884V118.585C147.826 116.163 148.233 113.751 149.086 111.464C147.506 113.326 145.528 114.857 143.278 115.961L125.853 125.331L120.445 116.524L137.77 107.154C140.079 105.834 142.623 104.914 145.281 104.437C142.596 104.111 140.027 103.213 137.77 101.814L119.844 92.3509L125.252 83.5438L142.777 92.913L146.082 95.1616C147.085 95.9035 147.993 96.7525 148.786 97.6913C147.985 95.3646 147.679 92.9138 147.884 90.477V71.7385H157.899V90.477C157.99 91.7248 157.99 92.9769 157.899 94.2247C157.733 95.3868 157.396 96.5218 156.897 97.5976C158.57 95.7609 160.569 94.2078 162.806 93.0067L180.231 83.6374L185.639 92.4445L168.314 101.814L164.709 103.5C163.562 103.975 162.348 104.29 161.104 104.437C162.333 104.649 163.539 104.963 164.709 105.374C165.972 105.851 167.18 106.448 168.314 107.154L185.939 116.617ZM211.676 127.954C211.706 116.855 210.191 105.801 207.17 95.0679C204.181 84.3689 199.739 74.0725 193.951 64.4305C193.479 63.641 193.141 62.7875 192.949 61.9008C192.784 61.2541 192.784 60.5799 192.949 59.9332C193.15 59.3929 193.495 58.9093 193.951 58.5279L195.353 57.4972L203.965 53C208.123 58.9851 211.805 65.2481 214.981 71.7385C217.965 77.7963 220.442 84.0612 222.392 90.477C224.31 96.6119 225.716 102.877 226.598 109.216C227.479 115.429 227.948 121.687 228 127.954C227.98 134.219 227.545 140.477 226.698 146.693C225.817 153.031 224.41 159.296 222.492 165.431C220.551 171.849 218.073 178.115 215.081 184.17C211.907 190.661 208.225 196.924 204.065 202.908L195.653 198.223L194.251 197.193C193.792 196.814 193.447 196.33 193.25 195.787C193.08 195.141 193.08 194.466 193.25 193.82C193.438 192.932 193.776 192.078 194.251 191.29C199.992 181.77 204.401 171.599 207.37 161.027C210.337 150.225 211.784 139.107 211.676 127.954V127.954Z"/></svg>
        </g>
         
        <g transform="translate(1800, 300)">
          <svg width="256" height="256" viewBox="0 0 256 256" fill="none" xmlns="http://www.w3.org/2000/svg">
<g clip-path="url(#clip0_33_873)">
<path d="M196 0H60C26.8629 0 0 26.8629 0 60V196C0 229.137 26.8629 256 60 256H196C229.137 256 256 229.137 256 196V60C256 26.8629 229.137 0 196 0Z" fill="#F4F2ED"/>
<g clip-path="url(#clip1_33_873)">
<path d="M194.595 127.919C194.595 125.87 193.081 124.689 191.223 125.276L63.4021 165.808C61.5404 166.398 60.03 168.541 60.03 170.585V212.011C60.03 214.06 61.5404 215.245 63.4021 214.654L191.223 174.126C193.081 173.535 194.595 171.393 194.595 169.344V127.919Z" fill="url(#paint0_linear_33_873)"/>
<path d="M60.03 126.599C60.03 128.648 61.5404 130.79 63.4021 131.381L191.241 171.916C193.103 172.507 194.613 171.322 194.613 169.277V127.848C194.613 125.803 193.103 123.661 191.241 123.07L63.4021 82.5344C61.5404 81.9437 60.03 83.125 60.03 85.1737V126.599Z" fill="#FF9800"/>
<path d="M194.595 42.7949C194.595 40.7463 193.081 39.5612 191.223 40.1518L63.4021 80.6801C61.5404 81.2708 60.03 83.4129 60.03 85.4616V126.887C60.03 128.936 61.5404 130.117 63.4021 129.53L191.223 88.9981C193.081 88.4075 194.595 86.2653 194.595 84.2204V42.7949Z" fill="#FF9800"/>
</g>
</g>
<defs>
<linearGradient id="paint0_linear_33_873" x1="7476.84" y1="5387.54" x2="8041.22" y2="3500.4" gradientUnits="userSpaceOnUse">
<stop stop-color="#FF9700"/>
<stop offset="0.53" stop-color="#F48E00"/>
<stop offset="1" stop-color="#D06F00"/>
</linearGradient>
<clipPath id="clip0_33_873">
<rect width="256" height="256" fill="white"/>
</clipPath>
<clipPath id="clip1_33_873">
<rect width="175" height="175" fill="white" transform="translate(40 40)"/>
</clipPath>
</defs>
</svg>

        </g>
         
        <g transform="translate(2100, 300)">
          <svg width="256" height="256" viewBox="0 0 256 256" fill="none" xmlns="http://www.w3.org/2000/svg">
<g clip-path="url(#clip0_33_897)">
<path d="M196 0H60C26.8629 0 0 26.8629 0 60V196C0 229.137 26.8629 256 60 256H196C229.137 256 256 229.137 256 196V60C256 26.8629 229.137 0 196 0Z" fill="#F4F2ED"/>
<path d="M127.5 206.25C170.992 206.25 206.25 170.992 206.25 127.5C206.25 84.0076 170.992 48.75 127.5 48.75C84.0076 48.75 48.75 84.0076 48.75 127.5C48.75 170.992 84.0076 206.25 127.5 206.25Z" fill="#F47421"/>
<path d="M127.5 165.694C148.594 165.694 165.694 148.594 165.694 127.5C165.694 106.406 148.594 89.3062 127.5 89.3062C106.406 89.3062 89.3062 106.406 89.3062 127.5C89.3062 148.594 106.406 165.694 127.5 165.694Z" stroke="white" stroke-width="8.55"/>
<path d="M73.9499 142.266C82.1048 142.266 88.7157 135.655 88.7157 127.5C88.7157 119.345 82.1048 112.734 73.9499 112.734C65.795 112.734 59.1841 119.345 59.1841 127.5C59.1841 135.655 65.795 142.266 73.9499 142.266Z" fill="#F47421"/>
<path d="M157.25 127.5H174.75H157.25Z" fill="black"/>
<path d="M157.25 127.5H174.75" stroke="#F47421" stroke-width="3.2378"/>
<path d="M73.9498 138.013C79.756 138.013 84.4628 133.306 84.4628 127.5C84.4628 121.694 79.756 116.987 73.9498 116.987C68.1436 116.987 63.4368 121.694 63.4368 127.5C63.4368 133.306 68.1436 138.013 73.9498 138.013Z" fill="white"/>
<path d="M141.487 73.7415C137.41 80.8039 139.83 89.8345 146.892 93.9119C153.954 97.9894 162.985 95.5697 167.062 88.5073C171.14 81.4449 168.72 72.4143 161.658 68.3368C154.595 64.2594 145.565 66.6791 141.487 73.7415Z" fill="#F47421"/>
<path d="M112.625 153.264L103.875 168.42L112.625 153.264Z" fill="black"/>
<path d="M112.625 153.264L103.875 168.42" stroke="#F47421" stroke-width="3.2378"/>
<path d="M145.17 75.8679C142.267 80.8962 143.99 87.3259 149.018 90.229C154.046 93.1321 160.476 91.4092 163.379 86.3809C166.282 81.3526 164.559 74.9229 159.531 72.0198C154.503 69.1168 148.073 70.8396 145.17 75.8679Z" fill="white"/>
<path d="M167.062 166.493C162.985 159.43 153.954 157.011 146.892 161.088C139.829 165.166 137.41 174.196 141.487 181.259C145.565 188.321 154.595 190.741 161.658 186.663C168.72 182.586 171.14 173.555 167.062 166.493Z" fill="#F47421"/>
<path d="M112.625 101.736L103.875 86.5804L112.625 101.736Z" fill="black"/>
<path d="M112.625 101.736L103.875 86.5804" stroke="#F47421" stroke-width="3.2378"/>
<path d="M163.379 168.619C160.476 163.591 154.047 161.868 149.018 164.771C143.99 167.674 142.267 174.104 145.17 179.132C148.073 184.161 154.503 185.883 159.531 182.98C164.56 180.077 166.282 173.648 163.379 168.619Z" fill="white"/>
</g>
<defs>
<clipPath id="clip0_33_897">
<rect width="256" height="256" fill="white"/>
</clipPath>
</defs>
</svg>

        </g>
         
        <g transform="translate(2400, 300)">
          <svg xmlns="http://www.w3.org/2000/svg" width="256" height="256" fill="none" viewBox="0 0 256 256"><rect width="256" height="256" fill="#F4F2ED" rx="60"/><path fill="#019833" stroke="#000" stroke-width="4" d="M135.498 39.4619C128.076 32.03 116.032 32.03 108.61 39.462L33.4081 114.765C26.0001 122.183 26.0001 134.199 33.4081 141.617L108.186 216.495C115.608 223.927 127.652 223.927 135.074 216.495L210.276 141.191C217.684 133.773 217.684 121.757 210.276 114.339L135.498 39.4619Z"/><path fill="#fff" stroke="#000" stroke-width="4" d="M161.769 40.7104L159.083 43.3988V53.2693L161.435 55.6235H173.86V65.1606L91.672 148.576V55.7425H105.331L108.133 52.9365V42.9482L105.546 40.9465H33.6672L31.3158 43.3007V53.5048L33.7069 55.8988H46.2085V216.316C46.2085 222.361 50.6553 227.485 56.6396 228.335V228.335C60.4891 228.883 64.3678 227.553 67.0718 224.759L235 51.2474V43.4001L232.315 40.7117L161.769 40.7104Z"/></svg>
        </g>
         
        <g transform="translate(2700, 300)">
          <svg xmlns="http://www.w3.org/2000/svg" width="256" height="256" fill="none" viewBox="0 0 256 256"><rect width="256" height="256" fill="#F4F2ED" rx="60"/><path fill="#2489CA" d="M33.7158 100.208C33.7158 100.208 28.9814 96.795 34.6627 92.2381L47.8994 80.402C47.8994 80.402 51.6869 76.4172 55.6915 79.8891L177.84 172.368V216.714C177.84 216.714 177.781 223.678 168.844 222.908L33.7158 100.208Z"/><path fill="#1070B3" d="M65.1997 128.792L33.7157 157.415C33.7157 157.415 30.4805 159.822 33.7157 164.123L48.3333 177.418C48.3333 177.418 51.8052 181.147 56.9341 176.905L90.3119 151.596L65.1997 128.792Z"/><path fill="#0877B9" d="M120.474 129.029L178.215 84.9391L177.84 40.83C177.84 40.83 175.374 31.2033 167.148 36.2139L90.312 106.145L120.474 129.029Z"/><path fill="#3C99D4" d="M168.844 222.968C172.198 226.4 176.262 225.276 176.262 225.276L221.259 203.103C227.019 199.177 226.21 194.305 226.21 194.305V61.8982C226.21 56.0788 220.252 54.0667 220.252 54.0667L181.253 35.267C172.731 30 167.148 36.2139 167.148 36.2139C167.148 36.2139 174.328 31.0455 177.84 40.83V215.905C177.84 217.109 177.583 218.292 177.071 219.358C176.045 221.429 173.816 223.362 168.47 222.553L168.844 222.968Z"/></svg>
        </g>
         
        <g transform="translate(3000, 300)">
          <svg width="256" height="256" viewBox="0 0 256 256" fill="none" xmlns="http://www.w3.org/2000/svg">
<g clip-path="url(#clip0_33_477)">
<path d="M196 0H60C26.8629 0 0 26.8629 0 60V196C0 229.137 26.8629 256 60 256H196C229.137 256 256 229.137 256 196V60C256 26.8629 229.137 0 196 0Z" fill="#F4F2ED"/>
<path d="M40 65.6631L110.968 55.9983L111 124.453L40.0656 124.857L40 65.6631ZM110.935 132.34L110.99 200.855L40.0557 191.102L40.0517 131.881L110.935 132.34ZM119.537 54.7335L213.636 41V123.582L119.537 124.33V54.7335ZM213.658 132.984L213.636 215.195L119.537 201.914L119.406 132.831L213.658 132.984Z" fill="#00ADEF"/>
</g>
<defs>
<clipPath id="clip0_33_477">
<rect width="256" height="256" fill="white"/>
</clipPath>
</defs>
</svg>

        </g>
         
        <g transform="translate(3300, 300)">
          <svg width="256" height="256" viewBox="0 0 256 256" fill="none" xmlns="http://www.w3.org/2000/svg">
<g clip-path="url(#clip0_33_538)">
<path d="M196 0H60C26.8629 0 0 26.8629 0 60V196C0 229.137 26.8629 256 60 256H196C229.137 256 256 229.137 256 196V60C256 26.8629 229.137 0 196 0Z" fill="#F4F2ED"/>
<g clip-path="url(#clip1_33_538)">
<path d="M128.045 28C182.695 28.1073 226.564 71.5842 227.967 125.288C229.453 182.971 182.456 229.288 125.709 227.975C72.6527 226.77 30.4436 184.432 28.1074 132.635C25.507 75.2327 71.431 27.9588 128.045 28Z" fill="#3398C2"/>
<path d="M91.2105 98.0318C91.8626 95.4976 92.8037 93.046 94.009 90.7099C95.1895 88.4565 96.8736 86.7725 99.3171 85.9636C101.067 85.394 102.528 84.3869 103.841 83.058C108.472 78.4024 114.094 75.6949 120.632 74.9685C121.705 74.8612 122.25 74.465 122.663 73.4579C123.645 71.0723 124.867 68.7776 126.485 66.7469C128.623 64.0559 131.182 62.0501 134.881 62.2647C137.217 62.3968 139.165 63.3791 140.585 65.2611C142.178 67.3578 143.359 69.7021 144.498 72.0629C144.87 72.8305 145.175 73.1112 146.116 72.9131C149.567 72.1454 152.365 73.656 153.851 76.867C155.577 80.6229 156.41 84.6016 156.823 88.6711C157.698 97.132 157.129 105.461 154.264 113.567C152.58 118.33 150.219 122.746 147.338 126.898C146.991 127.402 146.9 127.732 147.379 128.252C155.098 136.911 158.879 147.006 158.441 158.637V159.471C158.986 159.495 159.407 159.165 159.82 158.942C163.229 157.192 166.333 154.964 169.767 153.238C174.597 150.811 179.649 149.111 185.13 149.152C193.237 149.218 198.446 157.11 195.053 164.143C193.716 166.916 191.537 168.889 188.54 169.541C183.075 170.763 178.221 173.239 173.59 176.277C165.962 181.345 157.607 185.109 148.865 187.99C148.279 188.188 147.726 188.428 147.222 188.824C144.886 190.574 142.154 191.292 139.306 191.688C130.671 192.893 121.994 193.413 113.293 193.785C109.71 193.942 106.144 193.455 102.974 191.556C102.124 191.028 101.381 190.045 100.506 189.897C99.6556 189.765 98.6897 190.549 97.7486 190.772C92.1763 192.018 86.9508 190.97 82.1214 188.04C79.2569 186.314 77.903 183.582 78.0516 180.214C78.0929 179.315 77.837 178.662 77.3086 177.944C74.9889 174.708 73.8579 171.019 73.2223 167.123C71.9757 159.454 74.7082 153.114 79.7769 147.559C80.2557 147.031 80.4291 146.511 80.4291 145.809C80.4291 138.141 81.8903 130.835 85.828 124.149C88.0322 120.41 90.8803 117.199 94.0503 114.293C94.6612 113.748 94.7272 113.377 94.3144 112.675C92.9771 110.447 92.1516 107.995 91.4251 105.502C90.8142 105.065 91.2105 104.388 90.9628 103.843C90.9215 103.43 90.9628 103.009 90.8307 102.597V99.8643C90.938 99.468 90.938 99.0553 90.938 98.6426C91.0371 98.4445 90.9958 98.1803 91.2105 98.0318Z" fill="#FEFEFE"/>
<path d="M91.1444 103.826C91.3178 104.371 91.1032 104.982 91.4251 105.51C91.3343 105.576 91.3343 106.014 91.2105 105.709C90.9711 105.122 90.7977 104.462 90.7977 103.826C90.7564 101.73 90.5583 99.6084 91.1444 97.5283C91.1692 97.7016 91.1857 97.875 91.2352 98.0318C91.2105 98.2299 91.194 98.428 91.1692 98.6014C90.9711 98.9728 91.194 99.4103 90.9958 99.7818V102.646C91.1444 103.018 90.9546 103.455 91.1444 103.826Z" fill="#3298C3"/>
<path d="M152.572 159.776C152.572 161.79 152.109 163.755 151.854 165.719C151.639 167.444 151.812 167.643 153.562 167.337C157.5 166.66 161.058 165.001 164.492 163.053C168.166 160.956 171.666 158.571 175.596 157.002C178.634 155.781 181.738 154.972 185.04 154.972C187.904 154.972 189.894 156.524 190.24 158.975C190.571 161.245 189.324 163.416 187.046 163.895C180.532 165.274 174.91 168.485 169.429 172.051C162.082 176.797 154.082 180.223 145.753 182.848C145.447 182.938 145.051 183.004 144.853 183.194C142.888 185.274 140.288 185.621 137.663 185.968C130.299 186.934 122.886 187.363 115.456 187.8C113.318 187.932 111.172 187.998 109.034 187.586C105.624 186.909 104.179 185.638 103.659 182.839C103.197 180.322 104.378 177.944 106.895 176.302C107.16 176.128 107.44 175.955 107.861 175.691C106.507 174.857 105.393 173.875 104.543 172.653C104.13 172.084 103.907 172.439 103.775 172.917C103.362 174.494 102.941 176.087 102.528 177.664C102.248 178.712 101.893 179.744 101.455 180.743C100.184 183.648 97.8725 185.051 94.8098 185.332C91.681 185.613 88.7339 184.919 85.9354 183.541C84.0119 182.6 83.4423 181.18 84.0779 179.1C84.4081 177.986 85.0438 177.02 85.8033 175.839C83.1616 176.368 81.9976 174.832 81.0813 172.975C79.0257 168.906 78.324 164.605 79.1578 160.147C79.8347 156.606 81.9151 153.725 84.4081 151.233C85.8693 149.771 86.3069 148.368 86.2656 146.313C85.9354 134.443 90.418 124.694 99.6473 117.158C100.456 116.481 101.265 115.779 102.116 115.168C102.644 114.797 102.702 114.557 102.273 114.013C99.8867 111.016 98.0293 107.764 97.179 103.983C96.2132 99.724 97.6578 96.0259 99.8042 92.4847C100.11 92.006 100.588 91.7666 101.117 91.5685C103.808 90.6027 106.078 89.1416 108.134 87.0862C112.765 82.4554 118.494 80.334 125.049 80.6147C125.883 80.6559 126.254 80.4165 126.51 79.6324C127.492 76.768 128.714 74.011 130.357 71.4603C130.968 70.4946 131.645 69.6031 132.52 68.8849C134.138 67.5477 135.516 67.7458 136.606 69.5205C138.62 72.7315 140.172 76.1902 141.741 79.6406C142.137 80.5156 142.443 80.821 143.359 80.2267C144.432 79.5498 145.629 79.0711 146.834 78.6501C147.8 78.3199 148.362 78.5428 148.783 79.5498C150.004 82.4967 150.665 85.5839 151.036 88.7537C151.144 89.6286 151.342 90.4789 151.234 91.3539C151.168 93.2524 151.259 95.1592 151.276 97.0825C151.276 97.9328 150.97 98.7912 151.234 99.658C151.036 104.858 149.658 109.778 147.652 114.541C145.769 118.998 143.037 122.952 140.304 126.915C139.231 128.442 139.256 128.466 140.651 129.713C147.47 135.854 151.234 143.572 152.497 152.578C152.539 152.925 152.522 153.296 152.522 153.668C152.242 154.501 152.547 155.31 152.564 156.119C152.638 157.349 152.357 158.579 152.572 159.776Z" fill="#3398C2"/>
<path d="M151.259 99.6744C150.995 99.4598 151.061 99.1461 151.061 98.8655V92.1958C151.061 91.9151 150.995 91.6097 151.259 91.3868C151.548 94.1439 151.565 96.9174 151.259 99.6744Z" fill="#2B95C1"/>
<path d="M152.572 159.776C152.134 158.092 152.481 156.392 152.374 154.708C152.349 154.361 152.242 153.965 152.572 153.684C152.852 155.715 152.811 157.745 152.572 159.776Z" fill="#2693BF"/>
<path d="M90.9711 99.7817C90.9958 99.3855 90.7977 98.948 91.1444 98.6013C91.1444 98.9893 91.1692 99.4103 90.9711 99.7817ZM91.1444 103.826C90.8142 103.48 90.9876 103.042 90.9711 102.646C91.194 103.018 91.1444 103.43 91.1444 103.826Z" fill="#3398C2"/>
</g>
</g>
<defs>
<clipPath id="clip0_33_538">
<rect width="256" height="256" fill="white"/>
</clipPath>
<clipPath id="clip1_33_538">
<rect width="200" height="200" fill="white" transform="translate(28 28)"/>
</clipPath>
</defs>
</svg>

        </g>
        
  </svg>
  